#include "hUGEDriver.h"
#include <stddef.h>

static const unsigned char order_cnt = 56;

static const unsigned char P0[] = {
    DN(___,0,0xE00),
    DN(___,0,0x000),
    DN(___,0,0x000),
    DN(___,0,0x000),
    DN(___,0,0x000),
    DN(___,0,0x000),
    DN(___,0,0x000),
    DN(___,0,0x000),
    DN(___,0,0x000),
    DN(___,0,0x000),
    DN(___,0,0x000),
    DN(___,0,0x000),
    DN(___,0,0x000),
    DN(___,0,0x000),
    DN(___,0,0x000),
    DN(___,0,0x000),
    DN(___,0,0x000),
    DN(___,0,0x000),
    DN(___,0,0x000),
    DN(___,0,0x000),
    DN(___,0,0x000),
    DN(___,0,0x000),
    DN(___,0,0x000),
    DN(___,0,0x000),
    DN(___,0,0x000),
    DN(___,0,0x000),
    DN(___,0,0x000),
    DN(___,0,0x000),
    DN(___,0,0x000),
    DN(___,0,0x000),
    DN(___,0,0x000),
    DN(___,0,0x000),
    DN(___,0,0x000),
    DN(___,0,0x000),
    DN(___,0,0x000),
    DN(___,0,0x000),
    DN(___,0,0x000),
    DN(___,0,0x000),
    DN(___,0,0x000),
    DN(___,0,0x000),
    DN(___,0,0x000),
    DN(___,0,0x000),
    DN(___,0,0x000),
    DN(___,0,0x000),
    DN(___,0,0x000),
    DN(___,0,0x000),
    DN(___,0,0x000),
    DN(___,0,0x000),
    DN(___,0,0x000),
    DN(___,0,0x000),
    DN(___,0,0x000),
    DN(___,0,0x000),
    DN(___,0,0x000),
    DN(___,0,0x000),
    DN(___,0,0x000),
    DN(___,0,0x000),
    DN(___,0,0x000),
    DN(___,0,0x000),
    DN(___,0,0x000),
    DN(___,0,0x000),
    DN(___,0,0x000),
    DN(___,0,0x000),
    DN(___,0,0x000),
    DN(___,0,0x000),
};
static const unsigned char P1[] = {
    DN(E_7,15,0x049),
    DN(___,0,0x049),
    DN(___,0,0x049),
    DN(___,0,0x049),
    DN(___,0,0xE00),
    DN(___,0,0x000),
    DN(___,0,0x000),
    DN(___,0,0x000),
    DN(B_6,15,0x049),
    DN(___,0,0x049),
    DN(___,0,0x049),
    DN(___,0,0x049),
    DN(___,0,0xE00),
    DN(___,0,0x000),
    DN(___,0,0x000),
    DN(___,0,0x000),
    DN(B_6,15,0x05A),
    DN(___,0,0x05A),
    DN(___,0,0x05A),
    DN(___,0,0x05A),
    DN(___,0,0x05A),
    DN(___,0,0x05A),
    DN(___,0,0x05A),
    DN(___,0,0x05A),
    DN(___,0,0xE00),
    DN(___,0,0x000),
    DN(___,0,0x000),
    DN(___,0,0x000),
    DN(___,0,0x000),
    DN(___,0,0x000),
    DN(___,0,0x000),
    DN(___,0,0x000),
    DN(Ds7,15,0x038),
    DN(___,0,0x038),
    DN(___,0,0x038),
    DN(___,0,0x038),
    DN(___,0,0xE00),
    DN(___,0,0x000),
    DN(___,0,0x000),
    DN(___,0,0x000),
    DN(B_6,15,0x047),
    DN(___,0,0x047),
    DN(___,0,0x047),
    DN(___,0,0x047),
    DN(___,0,0xE00),
    DN(___,0,0x000),
    DN(___,0,0x000),
    DN(___,0,0x000),
    DN(Cs7,15,0x037),
    DN(___,0,0x037),
    DN(___,0,0x037),
    DN(___,0,0x037),
    DN(___,0,0x037),
    DN(___,0,0x037),
    DN(___,0,0x037),
    DN(___,0,0x037),
    DN(___,0,0xE00),
    DN(___,0,0x000),
    DN(___,0,0x000),
    DN(___,0,0x000),
    DN(___,0,0x000),
    DN(___,0,0x000),
    DN(___,0,0x000),
    DN(___,0,0x000),
};
static const unsigned char P3[] = {
    DN(Cs7,15,0x038),
    DN(___,0,0x038),
    DN(___,0,0x038),
    DN(___,0,0x038),
    DN(___,0,0x038),
    DN(___,0,0x038),
    DN(___,0,0x038),
    DN(___,0,0x038),
    DN(B_6,15,0x049),
    DN(___,0,0x049),
    DN(___,0,0x049),
    DN(___,0,0x049),
    DN(___,0,0x049),
    DN(___,0,0x049),
    DN(___,0,0x049),
    DN(___,0,0x049),
    DN(A_6,15,0x049),
    DN(___,0,0x049),
    DN(___,0,0x049),
    DN(___,0,0x049),
    DN(___,0,0x049),
    DN(___,0,0x049),
    DN(___,0,0x049),
    DN(___,0,0x049),
    DN(Gs6,15,0x038),
    DN(___,0,0x038),
    DN(___,0,0x038),
    DN(___,0,0x038),
    DN(___,0,0x038),
    DN(___,0,0x038),
    DN(___,0,0x038),
    DN(___,0,0x038),
    DN(Fs6,15,0x049),
    DN(___,0,0x049),
    DN(___,0,0x049),
    DN(___,0,0x049),
    DN(___,0,0x049),
    DN(___,0,0x049),
    DN(___,0,0x049),
    DN(___,0,0x049),
    DN(E_6,15,0x049),
    DN(___,0,0x049),
    DN(___,0,0x049),
    DN(___,0,0x049),
    DN(___,0,0x049),
    DN(___,0,0x049),
    DN(___,0,0x049),
    DN(___,0,0x049),
    DN(Ds6,15,0x059),
    DN(___,0,0x059),
    DN(___,0,0x059),
    DN(___,0,0x059),
    DN(___,0,0x059),
    DN(___,0,0x059),
    DN(___,0,0x059),
    DN(___,0,0x059),
    DN(___,0,0xE00),
    DN(___,0,0x000),
    DN(___,0,0x000),
    DN(___,0,0x000),
    DN(___,0,0x000),
    DN(___,0,0x000),
    DN(___,0,0x000),
    DN(___,0,0x000),
};
static const unsigned char P4[] = {
    DN(___,0,0xF05),
    DN(___,0,0x000),
    DN(___,0,0x000),
    DN(___,0,0x000),
    DN(___,0,0x000),
    DN(___,0,0x000),
    DN(___,0,0x000),
    DN(___,0,0x000),
    DN(___,0,0x000),
    DN(___,0,0x000),
    DN(___,0,0x000),
    DN(___,0,0x000),
    DN(___,0,0x000),
    DN(___,0,0x000),
    DN(___,0,0x000),
    DN(___,0,0x000),
    DN(___,0,0x000),
    DN(___,0,0x000),
    DN(___,0,0x000),
    DN(___,0,0x000),
    DN(___,0,0x000),
    DN(___,0,0x000),
    DN(___,0,0x000),
    DN(___,0,0x000),
    DN(___,0,0x000),
    DN(___,0,0x000),
    DN(___,0,0x000),
    DN(___,0,0x000),
    DN(___,0,0x000),
    DN(___,0,0x000),
    DN(___,0,0x000),
    DN(___,0,0x000),
    DN(___,0,0xF06),
    DN(___,0,0x000),
    DN(___,0,0x000),
    DN(___,0,0x000),
    DN(___,0,0x000),
    DN(___,0,0x000),
    DN(___,0,0x000),
    DN(___,0,0x000),
    DN(___,0,0xF07),
    DN(___,0,0x000),
    DN(___,0,0x000),
    DN(___,0,0x000),
    DN(___,0,0x000),
    DN(___,0,0x000),
    DN(___,0,0x000),
    DN(___,0,0x000),
    DN(___,0,0xF16),
    DN(___,0,0x000),
    DN(___,0,0x000),
    DN(___,0,0x000),
    DN(___,0,0x000),
    DN(___,0,0x000),
    DN(___,0,0x000),
    DN(___,0,0x000),
    DN(C_7,1,0xF03),
    DN(___,0,0xF02),
    DN(___,0,0xF03),
    DN(___,0,0xF02),
    DN(___,0,0xF03),
    DN(___,0,0xF02),
    DN(___,0,0xF03),
    DN(___,0,0xF02),
};
static const unsigned char P5[] = {
    DN(___,0,0x000),
    DN(___,0,0x000),
    DN(___,0,0x000),
    DN(___,0,0x000),
    DN(___,0,0x000),
    DN(___,0,0x000),
    DN(___,0,0x000),
    DN(___,0,0x000),
    DN(___,0,0x000),
    DN(___,0,0x000),
    DN(___,0,0x000),
    DN(___,0,0x000),
    DN(___,0,0x000),
    DN(___,0,0x000),
    DN(___,0,0x000),
    DN(___,0,0x000),
    DN(___,0,0x000),
    DN(___,0,0x000),
    DN(___,0,0x000),
    DN(___,0,0x000),
    DN(___,0,0x000),
    DN(___,0,0x000),
    DN(___,0,0x000),
    DN(___,0,0x000),
    DN(___,0,0x000),
    DN(___,0,0x000),
    DN(___,0,0x000),
    DN(___,0,0x000),
    DN(___,0,0x000),
    DN(___,0,0x000),
    DN(___,0,0x000),
    DN(___,0,0x000),
    DN(___,0,0x000),
    DN(___,0,0x000),
    DN(___,0,0x000),
    DN(___,0,0x000),
    DN(___,0,0x000),
    DN(___,0,0x000),
    DN(___,0,0x000),
    DN(___,0,0x000),
    DN(___,0,0x000),
    DN(___,0,0x000),
    DN(___,0,0x000),
    DN(___,0,0x000),
    DN(___,0,0x000),
    DN(___,0,0x000),
    DN(___,0,0x000),
    DN(___,0,0x000),
    DN(___,0,0x000),
    DN(___,0,0x000),
    DN(___,0,0x000),
    DN(___,0,0x000),
    DN(___,0,0x000),
    DN(___,0,0x000),
    DN(___,0,0x000),
    DN(___,0,0x000),
    DN(C_5,3,0x2FF),
    DN(___,0,0xE00),
    DN(___,0,0x000),
    DN(___,0,0x000),
    DN(___,0,0x000),
    DN(___,0,0x000),
    DN(___,0,0x000),
    DN(___,0,0x000),
};
static const unsigned char P6[] = {
    DN(___,0,0x000),
    DN(___,0,0x000),
    DN(___,0,0x000),
    DN(___,0,0x000),
    DN(Cs6,14,0x481),
    DN(___,0,0x481),
    DN(___,0,0xE00),
    DN(___,0,0x000),
    DN(Cs6,14,0x481),
    DN(___,0,0x481),
    DN(B_5,14,0x481),
    DN(___,0,0x481),
    DN(Cs6,14,0x481),
    DN(___,0,0x481),
    DN(B_5,14,0x481),
    DN(___,0,0x481),
    DN(Cs6,14,0x481),
    DN(___,0,0x481),
    DN(___,0,0xE00),
    DN(___,0,0x000),
    DN(Gs5,14,0x481),
    DN(___,0,0x481),
    DN(___,0,0xE00),
    DN(___,0,0x000),
    DN(E_5,14,0x481),
    DN(___,0,0x481),
    DN(___,0,0xE00),
    DN(___,0,0x000),
    DN(Cs5,14,0x481),
    DN(___,0,0x481),
    DN(E_6,14,0x481),
    DN(___,0,0x481),
    DN(___,0,0x481),
    DN(___,0,0x481),
    DN(___,0,0x481),
    DN(___,0,0x481),
    DN(Gs6,14,0x481),
    DN(___,0,0x481),
    DN(___,0,0xE00),
    DN(___,0,0x481),
    DN(Fs6,14,0x481),
    DN(___,0,0x481),
    DN(___,0,0xE00),
    DN(___,0,0x000),
    DN(E_6,14,0x481),
    DN(___,0,0x481),
    DN(Fs6,14,0x481),
    DN(___,0,0x481),
    DN(___,0,0x481),
    DN(___,0,0x481),
    DN(___,0,0x481),
    DN(___,0,0x481),
    DN(E_6,14,0x481),
    DN(___,0,0x481),
    DN(___,0,0xE00),
    DN(___,0,0x000),
    DN(Ds6,14,0x481),
    DN(___,0,0x481),
    DN(___,0,0xE00),
    DN(___,0,0x000),
    DN(B_5,14,0x481),
    DN(___,0,0x481),
    DN(___,0,0xE00),
    DN(___,0,0x000),
};
static const unsigned char P7[] = {
    DN(C_8,2,0xF03),
    DN(___,0,0xF02),
    DN(___,0,0xF03),
    DN(___,0,0xF02),
    DN(C_8,2,0xF03),
    DN(___,0,0xF02),
    DN(___,0,0xF03),
    DN(___,0,0xF02),
    DN(C_7,1,0xF03),
    DN(___,0,0xF02),
    DN(___,0,0xF03),
    DN(___,0,0xF02),
    DN(C_8,2,0xF03),
    DN(___,0,0xF02),
    DN(C_8,2,0xF03),
    DN(___,0,0xF02),
    DN(C_8,2,0xF03),
    DN(___,0,0xF02),
    DN(___,0,0xF03),
    DN(___,0,0xF02),
    DN(C_8,2,0xF03),
    DN(___,0,0xF02),
    DN(___,0,0xF03),
    DN(___,0,0xF02),
    DN(C_7,1,0xF03),
    DN(___,0,0xF02),
    DN(___,0,0xF03),
    DN(___,0,0xF02),
    DN(C_8,2,0xF03),
    DN(___,0,0xF02),
    DN(C_8,2,0xF03),
    DN(___,0,0xF02),
    DN(C_8,2,0xF03),
    DN(___,0,0xF02),
    DN(___,0,0xF03),
    DN(___,0,0xF02),
    DN(C_8,2,0xF03),
    DN(___,0,0xF02),
    DN(___,0,0xF03),
    DN(___,0,0xF02),
    DN(C_7,1,0xF03),
    DN(___,0,0xF02),
    DN(___,0,0xF03),
    DN(___,0,0xF02),
    DN(C_8,2,0xF03),
    DN(___,0,0xF02),
    DN(C_8,2,0xF03),
    DN(___,0,0xF02),
    DN(C_8,2,0xF03),
    DN(___,0,0xF02),
    DN(___,0,0xF03),
    DN(___,0,0xF02),
    DN(C_8,2,0xF03),
    DN(___,0,0xF02),
    DN(___,0,0xF03),
    DN(___,0,0xF02),
    DN(C_7,1,0xF03),
    DN(___,0,0xF02),
    DN(___,0,0xF03),
    DN(___,0,0xF02),
    DN(C_8,4,0xF03),
    DN(___,0,0xF02),
    DN(___,0,0xF03),
    DN(___,0,0xF02),
};
static const unsigned char P8[] = {
    DN(___,0,0x000),
    DN(___,0,0x000),
    DN(___,0,0x000),
    DN(___,0,0x000),
    DN(Cs6,14,0x481),
    DN(___,0,0x481),
    DN(___,0,0xE00),
    DN(___,0,0x000),
    DN(Cs6,14,0x481),
    DN(___,0,0x481),
    DN(B_5,14,0x481),
    DN(___,0,0x481),
    DN(Cs6,14,0x481),
    DN(___,0,0x481),
    DN(B_5,14,0x481),
    DN(___,0,0x481),
    DN(Cs6,14,0x481),
    DN(___,0,0x481),
    DN(___,0,0xE00),
    DN(___,0,0x000),
    DN(Gs5,14,0x481),
    DN(___,0,0x481),
    DN(___,0,0xE00),
    DN(___,0,0x000),
    DN(E_5,14,0x481),
    DN(___,0,0x481),
    DN(___,0,0xE00),
    DN(___,0,0x000),
    DN(Cs5,14,0x481),
    DN(___,0,0x481),
    DN(E_6,14,0x481),
    DN(___,0,0x481),
    DN(___,0,0x481),
    DN(___,0,0x481),
    DN(___,0,0x481),
    DN(___,0,0x481),
    DN(B_6,14,0x481),
    DN(___,0,0x481),
    DN(___,0,0xE00),
    DN(___,0,0x481),
    DN(A_6,14,0x481),
    DN(___,0,0x481),
    DN(___,0,0xE00),
    DN(___,0,0x000),
    DN(Gs6,14,0x481),
    DN(___,0,0x481),
    DN(A_6,14,0x481),
    DN(___,0,0x481),
    DN(___,0,0x481),
    DN(___,0,0x481),
    DN(___,0,0x481),
    DN(___,0,0x481),
    DN(Gs6,14,0x481),
    DN(___,0,0x481),
    DN(___,0,0xE00),
    DN(___,0,0x000),
    DN(Fs6,14,0x481),
    DN(___,0,0x481),
    DN(___,0,0xE00),
    DN(___,0,0x000),
    DN(E_6,14,0x481),
    DN(___,0,0x481),
    DN(___,0,0xE00),
    DN(___,0,0x000),
};
static const unsigned char P9[] = {
    DN(___,0,0x000),
    DN(___,0,0x000),
    DN(___,0,0x000),
    DN(___,0,0x000),
    DN(Gs6,14,0x481),
    DN(___,0,0x481),
    DN(___,0,0x481),
    DN(___,0,0x481),
    DN(Fs6,14,0x481),
    DN(___,0,0x481),
    DN(___,0,0x481),
    DN(___,0,0x481),
    DN(E_6,14,0x481),
    DN(___,0,0x481),
    DN(___,0,0x481),
    DN(___,0,0x481),
    DN(Fs6,14,0x481),
    DN(___,0,0x481),
    DN(___,0,0x481),
    DN(___,0,0x481),
    DN(___,0,0x481),
    DN(___,0,0x481),
    DN(___,0,0x481),
    DN(___,0,0x481),
    DN(E_6,14,0x481),
    DN(___,0,0x481),
    DN(___,0,0x481),
    DN(___,0,0x481),
    DN(___,0,0x481),
    DN(___,0,0x481),
    DN(___,0,0x481),
    DN(___,0,0x481),
    DN(Ds6,14,0x481),
    DN(___,0,0x481),
    DN(___,0,0x481),
    DN(___,0,0x481),
    DN(___,0,0x481),
    DN(___,0,0x481),
    DN(___,0,0x481),
    DN(___,0,0x481),
    DN(___,0,0x481),
    DN(___,0,0x481),
    DN(___,0,0x481),
    DN(___,0,0x481),
    DN(E_6,14,0x481),
    DN(___,0,0x481),
    DN(___,0,0x481),
    DN(___,0,0x481),
    DN(___,0,0x481),
    DN(___,0,0x481),
    DN(___,0,0x481),
    DN(___,0,0x481),
    DN(___,0,0x481),
    DN(___,0,0x481),
    DN(___,0,0x481),
    DN(___,0,0x481),
    DN(B_6,14,0x481),
    DN(___,0,0x481),
    DN(___,0,0x481),
    DN(___,0,0x481),
    DN(___,0,0x481),
    DN(___,0,0x481),
    DN(___,0,0x481),
    DN(___,0,0x481),
};
static const unsigned char P10[] = {
    DN(Gs6,14,0x481),
    DN(A_6,14,0x481),
    DN(___,0,0x481),
    DN(___,0,0x481),
    DN(___,0,0x481),
    DN(___,0,0x481),
    DN(___,0,0x481),
    DN(___,0,0x481),
    DN(___,0,0x481),
    DN(___,0,0x481),
    DN(___,0,0x481),
    DN(___,0,0x481),
    DN(Gs6,14,0x481),
    DN(___,0,0x481),
    DN(___,0,0x481),
    DN(___,0,0x481),
    DN(___,0,0x481),
    DN(___,0,0x481),
    DN(___,0,0x481),
    DN(___,0,0x481),
    DN(___,0,0x481),
    DN(___,0,0x481),
    DN(___,0,0x481),
    DN(___,0,0x481),
    DN(E_6,14,0x481),
    DN(___,0,0x481),
    DN(___,0,0x481),
    DN(___,0,0x481),
    DN(___,0,0x481),
    DN(___,0,0x481),
    DN(___,0,0x481),
    DN(___,0,0x481),
    DN(A_5,14,0x481),
    DN(___,0,0x481),
    DN(___,0,0x481),
    DN(___,0,0x481),
    DN(___,0,0x481),
    DN(___,0,0x481),
    DN(___,0,0x481),
    DN(___,0,0x481),
    DN(___,0,0x481),
    DN(___,0,0x481),
    DN(___,0,0x481),
    DN(___,0,0x481),
    DN(___,0,0x481),
    DN(___,0,0x481),
    DN(___,0,0x481),
    DN(___,0,0x481),
    DN(___,0,0xE00),
    DN(___,0,0x000),
    DN(___,0,0x000),
    DN(___,0,0x000),
    DN(Gs5,14,0x481),
    DN(___,0,0x481),
    DN(___,0,0x481),
    DN(___,0,0x481),
    DN(A_5,14,0x481),
    DN(___,0,0x481),
    DN(___,0,0x481),
    DN(___,0,0x481),
    DN(Cs6,14,0x481),
    DN(___,0,0x481),
    DN(___,0,0x481),
    DN(___,0,0x481),
};
static const unsigned char P11[] = {
    DN(___,0,0x481),
    DN(___,0,0x481),
    DN(___,0,0x481),
    DN(___,0,0x481),
    DN(B_5,14,0x481),
    DN(___,0,0x481),
    DN(___,0,0x481),
    DN(___,0,0x481),
    DN(Cs6,14,0x481),
    DN(___,0,0x481),
    DN(___,0,0x481),
    DN(___,0,0x481),
    DN(Ds6,14,0x481),
    DN(___,0,0x481),
    DN(___,0,0x481),
    DN(___,0,0x481),
    DN(___,0,0x481),
    DN(___,0,0x481),
    DN(___,0,0x481),
    DN(___,0,0x481),
    DN(Cs6,14,0x481),
    DN(___,0,0x481),
    DN(___,0,0x481),
    DN(___,0,0x481),
    DN(Ds6,14,0x481),
    DN(___,0,0x481),
    DN(___,0,0x481),
    DN(___,0,0x481),
    DN(E_6,14,0x481),
    DN(___,0,0x481),
    DN(___,0,0x481),
    DN(___,0,0x481),
    DN(___,0,0x481),
    DN(___,0,0x481),
    DN(___,0,0x481),
    DN(___,0,0x481),
    DN(Ds6,14,0x481),
    DN(___,0,0x481),
    DN(___,0,0x481),
    DN(___,0,0x481),
    DN(E_6,14,0x481),
    DN(___,0,0x481),
    DN(___,0,0x481),
    DN(___,0,0x481),
    DN(F_6,14,0x481),
    DN(___,0,0x481),
    DN(___,0,0x481),
    DN(___,0,0x481),
    DN(___,0,0x481),
    DN(___,0,0x481),
    DN(___,0,0x481),
    DN(___,0,0x481),
    DN(E_6,14,0x481),
    DN(___,0,0x481),
    DN(___,0,0x481),
    DN(___,0,0x481),
    DN(F_6,14,0x481),
    DN(___,0,0x481),
    DN(___,0,0x481),
    DN(___,0,0x481),
    DN(G_6,14,0x481),
    DN(___,0,0x481),
    DN(___,0,0x481),
    DN(___,0,0x481),
};
static const unsigned char P12[] = {
    DN(___,0,0x481),
    DN(___,0,0x481),
    DN(___,0,0x481),
    DN(___,0,0x481),
    DN(F_6,14,0x481),
    DN(___,0,0x481),
    DN(Ds6,14,0x481),
    DN(___,0,0x481),
    DN(Cs6,14,0x481),
    DN(___,0,0x481),
    DN(B_5,14,0x481),
    DN(___,0,0x481),
    DN(A_5,14,0x481),
    DN(___,0,0x481),
    DN(G_5,14,0x481),
    DN(___,0,0x481),
    DN(F_5,14,0x481),
    DN(___,0,0x481),
    DN(___,0,0x481),
    DN(___,0,0x481),
    DN(Fs5,14,0x481),
    DN(___,0,0x481),
    DN(___,0,0x481),
    DN(___,0,0x481),
    DN(Gs5,14,0x481),
    DN(___,0,0x481),
    DN(___,0,0x481),
    DN(___,0,0x481),
    DN(Gs6,14,0x481),
    DN(___,0,0x481),
    DN(___,0,0x481),
    DN(___,0,0x481),
    DN(___,0,0x481),
    DN(___,0,0x481),
    DN(___,0,0x481),
    DN(___,0,0x481),
    DN(Gs7,14,0x481),
    DN(___,0,0x481),
    DN(___,0,0x481),
    DN(___,0,0x481),
    DN(___,0,0x481),
    DN(___,0,0x481),
    DN(___,0,0x481),
    DN(___,0,0x481),
    DN(___,0,0x481),
    DN(___,0,0x481),
    DN(___,0,0x481),
    DN(___,0,0x481),
    DN(___,0,0x481),
    DN(___,0,0x481),
    DN(___,0,0x481),
    DN(___,0,0x481),
    DN(___,0,0x481),
    DN(___,0,0x481),
    DN(___,0,0x481),
    DN(___,0,0x481),
    DN(___,0,0x481),
    DN(___,0,0x481),
    DN(___,0,0x481),
    DN(___,0,0x481),
    DN(___,0,0x481),
    DN(___,0,0x481),
    DN(___,0,0x481),
    DN(___,0,0x481),
};
static const unsigned char P13[] = {
    DN(C_8,2,0xF03),
    DN(___,0,0xF02),
    DN(___,0,0xF03),
    DN(___,0,0xF02),
    DN(C_8,2,0xF03),
    DN(___,0,0xF02),
    DN(___,0,0xF03),
    DN(___,0,0xF02),
    DN(C_7,1,0xF03),
    DN(___,0,0xF02),
    DN(___,0,0xF03),
    DN(___,0,0xF02),
    DN(C_8,2,0xF03),
    DN(___,0,0xF02),
    DN(C_8,2,0xF03),
    DN(___,0,0xF02),
    DN(C_8,2,0xF03),
    DN(___,0,0xF02),
    DN(___,0,0xF03),
    DN(___,0,0xF02),
    DN(C_8,2,0xF03),
    DN(___,0,0xF02),
    DN(___,0,0xF03),
    DN(___,0,0xF02),
    DN(C_7,1,0xF03),
    DN(___,0,0xF02),
    DN(___,0,0xF03),
    DN(___,0,0xF02),
    DN(G_6,3,0xF03),
    DN(___,0,0xF02),
    DN(___,0,0xF03),
    DN(___,0,0xF02),
    DN(___,0,0xF03),
    DN(___,0,0xF02),
    DN(___,0,0xF03),
    DN(___,0,0xF02),
    DN(___,0,0xF03),
    DN(___,0,0xF02),
    DN(___,0,0xF03),
    DN(___,0,0xF02),
    DN(___,0,0xF03),
    DN(___,0,0xF02),
    DN(___,0,0xF03),
    DN(___,0,0xF02),
    DN(___,0,0xF03),
    DN(___,0,0xF02),
    DN(___,0,0xF03),
    DN(___,0,0xF02),
    DN(___,0,0xF03),
    DN(___,0,0xF02),
    DN(___,0,0xF03),
    DN(___,0,0xF02),
    DN(C_8,4,0xF03),
    DN(___,0,0xF02),
    DN(___,0,0xF03),
    DN(___,0,0xF02),
    DN(C_8,2,0xF03),
    DN(___,0,0xF02),
    DN(___,0,0xF03),
    DN(___,0,0xF02),
    DN(C_8,2,0xF03),
    DN(___,0,0xF02),
    DN(___,0,0xF03),
    DN(___,0,0xF02),
};
static const unsigned char P14[] = {
    DN(E_6,14,0x049),
    DN(___,0,0x049),
    DN(___,0,0x049),
    DN(___,0,0x049),
    DN(___,0,0xE00),
    DN(___,0,0x000),
    DN(___,0,0x000),
    DN(___,0,0x000),
    DN(B_5,14,0x049),
    DN(___,0,0x049),
    DN(___,0,0x049),
    DN(___,0,0x049),
    DN(___,0,0xE00),
    DN(___,0,0x000),
    DN(___,0,0x000),
    DN(___,0,0x000),
    DN(B_5,14,0x05A),
    DN(___,0,0x05A),
    DN(___,0,0x05A),
    DN(___,0,0x05A),
    DN(___,0,0x05A),
    DN(___,0,0x05A),
    DN(___,0,0x05A),
    DN(___,0,0x05A),
    DN(___,0,0xE00),
    DN(___,0,0x000),
    DN(___,0,0x000),
    DN(___,0,0x000),
    DN(Ds6,14,0x038),
    DN(___,0,0x038),
    DN(___,0,0x038),
    DN(___,0,0x038),
    DN(___,0,0x038),
    DN(___,0,0x038),
    DN(___,0,0x038),
    DN(___,0,0x038),
    DN(___,0,0xE00),
    DN(___,0,0x000),
    DN(___,0,0x000),
    DN(___,0,0x000),
    DN(B_5,14,0x047),
    DN(___,0,0x047),
    DN(___,0,0x047),
    DN(___,0,0x047),
    DN(___,0,0xE00),
    DN(___,0,0x000),
    DN(___,0,0x000),
    DN(___,0,0x000),
    DN(Cs6,14,0x037),
    DN(___,0,0x037),
    DN(___,0,0x037),
    DN(___,0,0x037),
    DN(___,0,0xE00),
    DN(___,0,0x000),
    DN(___,0,0x000),
    DN(___,0,0x000),
    DN(___,0,0x000),
    DN(___,0,0x000),
    DN(___,0,0x000),
    DN(___,0,0x000),
    DN(___,0,0x000),
    DN(___,0,0x000),
    DN(___,0,0x000),
    DN(___,0,0x000),
};
static const unsigned char P15[] = {
    DN(Cs6,14,0x038),
    DN(___,0,0x038),
    DN(___,0,0x038),
    DN(___,0,0x038),
    DN(___,0,0xE00),
    DN(___,0,0x000),
    DN(___,0,0x000),
    DN(___,0,0x000),
    DN(Gs5,14,0x038),
    DN(___,0,0x038),
    DN(___,0,0x038),
    DN(___,0,0x038),
    DN(___,0,0xE00),
    DN(___,0,0x000),
    DN(___,0,0x000),
    DN(___,0,0x000),
    DN(A_5,14,0x049),
    DN(___,0,0x049),
    DN(___,0,0x049),
    DN(___,0,0x049),
    DN(___,0,0x049),
    DN(___,0,0x049),
    DN(___,0,0x049),
    DN(___,0,0x049),
    DN(___,0,0xE00),
    DN(___,0,0x000),
    DN(___,0,0x000),
    DN(___,0,0x000),
    DN(Ds6,14,0x038),
    DN(___,0,0x038),
    DN(___,0,0x038),
    DN(___,0,0x038),
    DN(___,0,0x038),
    DN(___,0,0x038),
    DN(___,0,0x038),
    DN(___,0,0x038),
    DN(___,0,0xE00),
    DN(___,0,0x000),
    DN(___,0,0x000),
    DN(___,0,0x000),
    DN(B_5,14,0x047),
    DN(___,0,0x047),
    DN(___,0,0x047),
    DN(___,0,0x047),
    DN(___,0,0xE00),
    DN(___,0,0x000),
    DN(___,0,0x000),
    DN(___,0,0x000),
    DN(C_6,14,0x048),
    DN(___,0,0x048),
    DN(___,0,0x048),
    DN(___,0,0x048),
    DN(___,0,0xE00),
    DN(___,0,0x000),
    DN(___,0,0x000),
    DN(___,0,0x000),
    DN(___,0,0x000),
    DN(___,0,0x000),
    DN(___,0,0x000),
    DN(___,0,0x000),
    DN(___,0,0x000),
    DN(___,0,0x000),
    DN(___,0,0x000),
    DN(___,0,0x000),
};
static const unsigned char P16[] = {
    DN(Cs6,14,0x038),
    DN(___,0,0x038),
    DN(___,0,0x038),
    DN(___,0,0x038),
    DN(B_5,14,0x049),
    DN(___,0,0x049),
    DN(___,0,0x049),
    DN(___,0,0x049),
    DN(___,0,0xE00),
    DN(___,0,0x000),
    DN(___,0,0x000),
    DN(___,0,0x000),
    DN(A_5,14,0x049),
    DN(___,0,0x049),
    DN(___,0,0x049),
    DN(___,0,0x049),
    DN(___,0,0xE00),
    DN(___,0,0x000),
    DN(___,0,0x000),
    DN(___,0,0x000),
    DN(Gs5,14,0x038),
    DN(___,0,0x038),
    DN(___,0,0x038),
    DN(___,0,0x038),
    DN(___,0,0xE00),
    DN(___,0,0x000),
    DN(___,0,0x000),
    DN(___,0,0x000),
    DN(Fs5,14,0x049),
    DN(___,0,0x049),
    DN(___,0,0x049),
    DN(___,0,0x049),
    DN(___,0,0x049),
    DN(___,0,0x049),
    DN(___,0,0x049),
    DN(___,0,0x049),
    DN(___,0,0xE00),
    DN(___,0,0x000),
    DN(___,0,0x000),
    DN(___,0,0x000),
    DN(E_5,14,0x049),
    DN(___,0,0x049),
    DN(___,0,0x049),
    DN(___,0,0x049),
    DN(___,0,0xE00),
    DN(___,0,0x000),
    DN(___,0,0x000),
    DN(___,0,0x000),
    DN(Ds5,14,0x059),
    DN(___,0,0x059),
    DN(___,0,0x059),
    DN(___,0,0x059),
    DN(___,0,0xE00),
    DN(___,0,0x000),
    DN(___,0,0x000),
    DN(___,0,0x000),
    DN(___,0,0x000),
    DN(___,0,0x000),
    DN(___,0,0x000),
    DN(___,0,0x000),
    DN(___,0,0x000),
    DN(___,0,0x000),
    DN(___,0,0x000),
    DN(___,0,0x000),
};
static const unsigned char P17[] = {
    DN(___,0,0xF03),
    DN(___,0,0xF02),
    DN(___,0,0xF03),
    DN(___,0,0xF02),
    DN(___,0,0xF03),
    DN(___,0,0xF02),
    DN(___,0,0xF03),
    DN(___,0,0xF02),
    DN(___,0,0xF03),
    DN(___,0,0xF02),
    DN(___,0,0xF03),
    DN(___,0,0xF02),
    DN(___,0,0xF03),
    DN(___,0,0xF02),
    DN(___,0,0xF03),
    DN(___,0,0xF02),
    DN(___,0,0xF03),
    DN(___,0,0xF02),
    DN(___,0,0xF03),
    DN(___,0,0xF02),
    DN(___,0,0xF03),
    DN(___,0,0xF02),
    DN(___,0,0xF03),
    DN(___,0,0xF02),
    DN(___,0,0xF03),
    DN(___,0,0xF02),
    DN(___,0,0xF03),
    DN(___,0,0xF02),
    DN(___,0,0xF03),
    DN(___,0,0xF02),
    DN(___,0,0xF03),
    DN(___,0,0xF02),
    DN(___,0,0xF03),
    DN(___,0,0xF02),
    DN(___,0,0xF03),
    DN(___,0,0xF02),
    DN(___,0,0xF03),
    DN(___,0,0xF02),
    DN(___,0,0xF03),
    DN(___,0,0xF02),
    DN(___,0,0xF03),
    DN(___,0,0xF02),
    DN(___,0,0xF03),
    DN(___,0,0xF02),
    DN(___,0,0xF03),
    DN(___,0,0xF02),
    DN(___,0,0xF03),
    DN(___,0,0xF02),
    DN(___,0,0xF03),
    DN(___,0,0xF02),
    DN(___,0,0xF03),
    DN(___,0,0xF02),
    DN(C_8,4,0xF03),
    DN(___,0,0xF02),
    DN(___,0,0xF03),
    DN(___,0,0xF02),
    DN(C_8,2,0xF03),
    DN(___,0,0xF02),
    DN(___,0,0xF03),
    DN(___,0,0xF02),
    DN(C_8,2,0xF03),
    DN(___,0,0xF02),
    DN(___,0,0xF03),
    DN(___,0,0xF02),
};
static const unsigned char P18[] = {
    DN(___,0,0xF03),
    DN(___,0,0xF02),
    DN(___,0,0xF03),
    DN(___,0,0xF02),
    DN(___,0,0xF03),
    DN(___,0,0xF02),
    DN(___,0,0xF03),
    DN(___,0,0xF02),
    DN(___,0,0xF03),
    DN(___,0,0xF02),
    DN(___,0,0xF03),
    DN(___,0,0xF02),
    DN(___,0,0xF03),
    DN(___,0,0xF02),
    DN(___,0,0xF03),
    DN(___,0,0xF02),
    DN(___,0,0xF03),
    DN(___,0,0xF02),
    DN(___,0,0xF03),
    DN(___,0,0xF02),
    DN(___,0,0xF03),
    DN(___,0,0xF02),
    DN(___,0,0xF03),
    DN(___,0,0xF02),
    DN(___,0,0xF03),
    DN(___,0,0xF02),
    DN(___,0,0xF03),
    DN(___,0,0xF02),
    DN(___,0,0xF03),
    DN(___,0,0xF02),
    DN(___,0,0xF03),
    DN(___,0,0xF02),
    DN(___,0,0xF03),
    DN(___,0,0xF02),
    DN(___,0,0xF03),
    DN(___,0,0xF02),
    DN(___,0,0xF03),
    DN(___,0,0xF02),
    DN(___,0,0xF03),
    DN(___,0,0xF02),
    DN(___,0,0xF03),
    DN(___,0,0xF02),
    DN(___,0,0xF03),
    DN(___,0,0xF02),
    DN(___,0,0xF03),
    DN(___,0,0xF02),
    DN(___,0,0xF03),
    DN(___,0,0xF02),
    DN(___,0,0xF03),
    DN(___,0,0xF02),
    DN(___,0,0xF03),
    DN(___,0,0xF02),
    DN(___,0,0xF03),
    DN(___,0,0xF02),
    DN(___,0,0xF03),
    DN(___,0,0xF02),
    DN(C_7,1,0xF03),
    DN(___,0,0xF02),
    DN(C_7,1,0xF03),
    DN(___,0,0xF02),
    DN(C_7,1,0xF03),
    DN(___,0,0xF02),
    DN(C_7,1,0xF03),
    DN(___,0,0xF02),
};
static const unsigned char P19[] = {
    DN(G_6,3,0xF03),
    DN(___,0,0xF02),
    DN(___,0,0xF03),
    DN(___,0,0xF02),
    DN(___,0,0xF03),
    DN(___,0,0xF02),
    DN(___,0,0xF03),
    DN(___,0,0xF02),
    DN(C_7,1,0xF03),
    DN(___,0,0xF02),
    DN(___,0,0xF03),
    DN(___,0,0xF02),
    DN(C_8,2,0xF03),
    DN(___,0,0xF02),
    DN(C_8,2,0xF03),
    DN(___,0,0xF02),
    DN(C_8,2,0xF03),
    DN(___,0,0xF02),
    DN(___,0,0xF03),
    DN(___,0,0xF02),
    DN(C_8,2,0xF03),
    DN(___,0,0xF02),
    DN(___,0,0xF03),
    DN(___,0,0xF02),
    DN(C_7,1,0xF03),
    DN(___,0,0xF02),
    DN(___,0,0xF03),
    DN(___,0,0xF02),
    DN(C_8,2,0xF03),
    DN(___,0,0xF02),
    DN(C_8,2,0xF03),
    DN(___,0,0xF02),
    DN(C_8,2,0xF03),
    DN(___,0,0xF02),
    DN(___,0,0xF03),
    DN(___,0,0xF02),
    DN(C_8,2,0xF03),
    DN(___,0,0xF02),
    DN(___,0,0xF03),
    DN(___,0,0xF02),
    DN(C_7,1,0xF03),
    DN(___,0,0xF02),
    DN(___,0,0xF03),
    DN(___,0,0xF02),
    DN(C_8,2,0xF03),
    DN(___,0,0xF02),
    DN(C_8,2,0xF03),
    DN(___,0,0xF02),
    DN(C_8,2,0xF03),
    DN(___,0,0xF02),
    DN(___,0,0xF03),
    DN(___,0,0xF02),
    DN(C_8,2,0xF03),
    DN(___,0,0xF02),
    DN(___,0,0xF03),
    DN(___,0,0xF02),
    DN(C_7,1,0xF03),
    DN(___,0,0xF02),
    DN(___,0,0xF03),
    DN(___,0,0xF02),
    DN(C_8,4,0xF03),
    DN(___,0,0xF02),
    DN(___,0,0xF03),
    DN(___,0,0xF02),
};
static const unsigned char P20[] = {
    DN(C_8,2,0xF03),
    DN(___,0,0xF02),
    DN(___,0,0xF03),
    DN(___,0,0xF02),
    DN(C_8,2,0xF03),
    DN(___,0,0xF02),
    DN(___,0,0xF03),
    DN(___,0,0xF02),
    DN(C_7,1,0xF03),
    DN(___,0,0xF02),
    DN(___,0,0xF03),
    DN(___,0,0xF02),
    DN(C_8,2,0xF03),
    DN(___,0,0xF02),
    DN(C_8,2,0xF03),
    DN(___,0,0xF02),
    DN(C_8,2,0xF03),
    DN(___,0,0xF02),
    DN(___,0,0xF03),
    DN(___,0,0xF02),
    DN(C_8,2,0xF03),
    DN(___,0,0xF02),
    DN(___,0,0xF03),
    DN(___,0,0xF02),
    DN(C_7,1,0xF03),
    DN(___,0,0xF02),
    DN(___,0,0xF03),
    DN(___,0,0xF02),
    DN(C_8,2,0xF03),
    DN(___,0,0xF02),
    DN(C_8,2,0xF03),
    DN(___,0,0xF02),
    DN(C_8,2,0xF03),
    DN(___,0,0xF02),
    DN(___,0,0xF03),
    DN(___,0,0xF02),
    DN(C_8,2,0xF03),
    DN(___,0,0xF02),
    DN(___,0,0xF03),
    DN(___,0,0xF02),
    DN(C_7,1,0xF03),
    DN(___,0,0xF02),
    DN(___,0,0xF03),
    DN(___,0,0xF02),
    DN(C_8,2,0xF03),
    DN(___,0,0xF02),
    DN(C_8,2,0xF03),
    DN(___,0,0xF02),
    DN(C_8,2,0xF03),
    DN(___,0,0xF02),
    DN(___,0,0xF03),
    DN(___,0,0xF02),
    DN(C_8,2,0xF03),
    DN(___,0,0xF02),
    DN(___,0,0xF03),
    DN(___,0,0xF02),
    DN(C_7,1,0xF03),
    DN(___,0,0xF02),
    DN(C_7,1,0xF03),
    DN(___,0,0xF02),
    DN(C_7,1,0xF03),
    DN(___,0,0xF02),
    DN(C_7,1,0xF03),
    DN(___,0,0xF02),
};
static const unsigned char P21[] = {
    DN(G_3,3,0x280),
    DN(Cs3,9,0x000),
    DN(___,0,0x000),
    DN(___,0,0x000),
    DN(___,0,0x000),
    DN(___,0,0x000),
    DN(___,0,0x000),
    DN(___,0,0x000),
    DN(C_5,3,0x2FF),
    DN(Cs3,9,0x000),
    DN(___,0,0x000),
    DN(___,0,0x000),
    DN(Ds3,9,0x000),
    DN(___,0,0x000),
    DN(___,0,0x000),
    DN(___,0,0x000),
    DN(G_3,3,0x280),
    DN(E_3,9,0x000),
    DN(___,0,0x000),
    DN(___,0,0x000),
    DN(Ds3,9,0x000),
    DN(___,0,0x000),
    DN(___,0,0x000),
    DN(___,0,0x000),
    DN(C_5,3,0x2FF),
    DN(Cs3,9,0x000),
    DN(___,0,0x000),
    DN(___,0,0x000),
    DN(E_3,9,0x000),
    DN(___,0,0x000),
    DN(___,0,0x000),
    DN(___,0,0x000),
    DN(G_3,3,0x280),
    DN(E_3,9,0x000),
    DN(___,0,0x000),
    DN(___,0,0x000),
    DN(E_4,9,0x000),
    DN(___,0,0x000),
    DN(___,0,0x000),
    DN(___,0,0x000),
    DN(C_5,3,0x2FF),
    DN(E_3,9,0x000),
    DN(___,0,0x000),
    DN(___,0,0x000),
    DN(Fs3,9,0x000),
    DN(___,0,0x000),
    DN(___,0,0x000),
    DN(___,0,0x000),
    DN(G_3,3,0x280),
    DN(Fs3,9,0x000),
    DN(___,0,0x000),
    DN(___,0,0x000),
    DN(Fs4,9,0x000),
    DN(___,0,0x000),
    DN(___,0,0x000),
    DN(___,0,0x000),
    DN(C_5,3,0x2FF),
    DN(Fs3,9,0x000),
    DN(___,0,0x000),
    DN(___,0,0x000),
    DN(___,0,0x000),
    DN(___,0,0x000),
    DN(___,0,0x000),
    DN(___,0,0x000),
};
static const unsigned char P22[] = {
    DN(G_3,3,0x280),
    DN(___,0,0xE00),
    DN(___,0,0x000),
    DN(___,0,0x000),
    DN(Gs3,9,0x000),
    DN(___,0,0x000),
    DN(___,0,0x000),
    DN(___,0,0x000),
    DN(C_5,3,0x2FF),
    DN(Fs3,9,0x000),
    DN(___,0,0x000),
    DN(___,0,0x000),
    DN(E_3,9,0x000),
    DN(___,0,0x000),
    DN(___,0,0x000),
    DN(___,0,0x000),
    DN(G_3,3,0x280),
    DN(Fs3,9,0x000),
    DN(___,0,0x000),
    DN(___,0,0x000),
    DN(E_3,9,0x000),
    DN(___,0,0x000),
    DN(___,0,0x000),
    DN(___,0,0x000),
    DN(C_5,3,0x2FF),
    DN(C_3,9,0x000),
    DN(___,0,0x000),
    DN(___,0,0x000),
    DN(Cs3,9,0x000),
    DN(___,0,0x000),
    DN(___,0,0x000),
    DN(___,0,0x000),
    DN(___,0,0x000),
    DN(___,0,0x000),
    DN(___,0,0x000),
    DN(___,0,0x000),
    DN(___,0,0x000),
    DN(___,0,0x000),
    DN(___,0,0x000),
    DN(___,0,0x000),
    DN(___,0,0x000),
    DN(___,0,0x000),
    DN(___,0,0x000),
    DN(___,0,0x000),
    DN(___,0,0x000),
    DN(___,0,0x000),
    DN(___,0,0x000),
    DN(___,0,0x000),
    DN(___,0,0x000),
    DN(___,0,0x000),
    DN(___,0,0x000),
    DN(___,0,0x000),
    DN(___,0,0x000),
    DN(___,0,0x000),
    DN(___,0,0x000),
    DN(___,0,0x000),
    DN(___,0,0xE00),
    DN(___,0,0x000),
    DN(___,0,0x000),
    DN(___,0,0x000),
    DN(___,0,0x000),
    DN(___,0,0x000),
    DN(___,0,0x000),
    DN(___,0,0x000),
};
static const unsigned char P23[] = {
    DN(G_3,3,0x280),
    DN(___,0,0xE00),
    DN(___,0,0x000),
    DN(___,0,0x000),
    DN(___,0,0x000),
    DN(___,0,0x000),
    DN(___,0,0x000),
    DN(___,0,0x000),
    DN(___,0,0x000),
    DN(___,0,0x000),
    DN(___,0,0x000),
    DN(___,0,0x000),
    DN(___,0,0x000),
    DN(___,0,0x000),
    DN(___,0,0x000),
    DN(___,0,0x000),
    DN(G_3,3,0x280),
    DN(___,0,0xE00),
    DN(___,0,0x000),
    DN(___,0,0x000),
    DN(___,0,0x000),
    DN(___,0,0x000),
    DN(___,0,0x000),
    DN(___,0,0x000),
    DN(___,0,0x000),
    DN(___,0,0x000),
    DN(___,0,0x000),
    DN(___,0,0x000),
    DN(G_3,3,0x280),
    DN(___,0,0xE00),
    DN(___,0,0x000),
    DN(___,0,0x000),
    DN(___,0,0x000),
    DN(___,0,0x000),
    DN(___,0,0x000),
    DN(___,0,0x000),
    DN(___,0,0x000),
    DN(___,0,0x000),
    DN(___,0,0x000),
    DN(___,0,0x000),
    DN(___,0,0x000),
    DN(___,0,0x000),
    DN(___,0,0x000),
    DN(___,0,0x000),
    DN(___,0,0x000),
    DN(___,0,0x000),
    DN(___,0,0x000),
    DN(___,0,0x000),
    DN(G_3,3,0x280),
    DN(___,0,0xE00),
    DN(___,0,0x000),
    DN(___,0,0x000),
    DN(___,0,0x000),
    DN(___,0,0x000),
    DN(___,0,0x000),
    DN(___,0,0x000),
    DN(___,0,0x000),
    DN(___,0,0x000),
    DN(___,0,0x000),
    DN(___,0,0x000),
    DN(___,0,0x000),
    DN(___,0,0x000),
    DN(___,0,0x000),
    DN(___,0,0x000),
};
static const unsigned char P24[] = {
    DN(G_3,3,0x280),
    DN(___,0,0xE00),
    DN(___,0,0x000),
    DN(___,0,0x000),
    DN(___,0,0x000),
    DN(___,0,0x000),
    DN(___,0,0x000),
    DN(___,0,0x000),
    DN(___,0,0x000),
    DN(___,0,0x000),
    DN(___,0,0x000),
    DN(___,0,0x000),
    DN(G_3,3,0x280),
    DN(___,0,0xE00),
    DN(___,0,0x000),
    DN(___,0,0x000),
    DN(___,0,0x000),
    DN(___,0,0x000),
    DN(___,0,0x000),
    DN(___,0,0x000),
    DN(___,0,0x000),
    DN(___,0,0x000),
    DN(___,0,0x000),
    DN(___,0,0x000),
    DN(___,0,0x000),
    DN(___,0,0x000),
    DN(___,0,0x000),
    DN(___,0,0x000),
    DN(G_3,3,0x280),
    DN(___,0,0xE00),
    DN(___,0,0x000),
    DN(___,0,0x000),
    DN(___,0,0x000),
    DN(___,0,0x000),
    DN(___,0,0x000),
    DN(___,0,0x000),
    DN(___,0,0x000),
    DN(___,0,0x000),
    DN(___,0,0x000),
    DN(___,0,0x000),
    DN(___,0,0x000),
    DN(___,0,0x000),
    DN(___,0,0x000),
    DN(___,0,0x000),
    DN(___,0,0x000),
    DN(___,0,0x000),
    DN(___,0,0x000),
    DN(___,0,0x000),
    DN(G_3,3,0x280),
    DN(___,0,0xE00),
    DN(___,0,0x000),
    DN(___,0,0x000),
    DN(___,0,0x000),
    DN(___,0,0x000),
    DN(___,0,0x000),
    DN(___,0,0x000),
    DN(C_5,3,0x2FF),
    DN(___,0,0xE00),
    DN(C_5,3,0x2FF),
    DN(___,0,0xE00),
    DN(C_5,3,0x2FF),
    DN(___,0,0xE00),
    DN(C_5,3,0x2FF),
    DN(___,0,0xE00),
};
static const unsigned char P25[] = {
    DN(G_3,3,0x280),
    DN(Gs3,9,0x000),
    DN(___,0,0x000),
    DN(___,0,0x000),
    DN(___,0,0x000),
    DN(___,0,0x000),
    DN(___,0,0x000),
    DN(___,0,0x000),
    DN(C_5,3,0x2FF),
    DN(E_3,9,0x000),
    DN(___,0,0x000),
    DN(___,0,0x000),
    DN(Gs3,9,0x000),
    DN(___,0,0x000),
    DN(___,0,0x000),
    DN(___,0,0x000),
    DN(G_3,3,0x280),
    DN(Gs3,9,0x000),
    DN(___,0,0x000),
    DN(___,0,0x000),
    DN(E_3,9,0x000),
    DN(___,0,0x000),
    DN(___,0,0x000),
    DN(___,0,0x000),
    DN(C_5,3,0x2FF),
    DN(Gs3,9,0x000),
    DN(___,0,0x000),
    DN(___,0,0x000),
    DN(E_3,9,0x000),
    DN(___,0,0x000),
    DN(___,0,0x000),
    DN(___,0,0x000),
    DN(G_3,3,0x280),
    DN(Fs3,9,0x000),
    DN(___,0,0x000),
    DN(___,0,0x000),
    DN(___,0,0x000),
    DN(___,0,0x000),
    DN(___,0,0x000),
    DN(___,0,0x000),
    DN(C_5,3,0x2FF),
    DN(Ds3,9,0x000),
    DN(___,0,0x000),
    DN(___,0,0x000),
    DN(Fs3,9,0x000),
    DN(___,0,0x000),
    DN(___,0,0x000),
    DN(___,0,0x000),
    DN(G_3,3,0x280),
    DN(Fs3,9,0x000),
    DN(___,0,0x000),
    DN(___,0,0x000),
    DN(Ds3,9,0x000),
    DN(___,0,0x000),
    DN(___,0,0x000),
    DN(___,0,0x000),
    DN(C_5,3,0x2FF),
    DN(Fs3,9,0x000),
    DN(___,0,0x000),
    DN(___,0,0x000),
    DN(Ds3,9,0x000),
    DN(___,0,0x000),
    DN(___,0,0x000),
    DN(___,0,0x000),
};
static const unsigned char P26[] = {
    DN(G_3,3,0x280),
    DN(E_3,9,0x000),
    DN(___,0,0x000),
    DN(___,0,0x000),
    DN(___,0,0x000),
    DN(___,0,0x000),
    DN(___,0,0x000),
    DN(___,0,0x000),
    DN(C_5,3,0x2FF),
    DN(Cs3,9,0x000),
    DN(___,0,0x000),
    DN(___,0,0x000),
    DN(E_3,9,0x000),
    DN(___,0,0x000),
    DN(___,0,0x000),
    DN(___,0,0x000),
    DN(G_3,3,0x280),
    DN(E_3,9,0x000),
    DN(___,0,0x000),
    DN(___,0,0x000),
    DN(Cs3,9,0x000),
    DN(___,0,0x000),
    DN(___,0,0x000),
    DN(___,0,0x000),
    DN(C_5,3,0x2FF),
    DN(E_3,9,0x000),
    DN(___,0,0x000),
    DN(___,0,0x000),
    DN(Cs3,9,0x000),
    DN(___,0,0x000),
    DN(___,0,0x000),
    DN(___,0,0x000),
    DN(G_3,3,0x280),
    DN(Ds3,9,0x000),
    DN(___,0,0x000),
    DN(___,0,0x000),
    DN(___,0,0x000),
    DN(___,0,0x000),
    DN(___,0,0x000),
    DN(___,0,0x000),
    DN(C_5,3,0x2FF),
    DN(C_3,9,0x000),
    DN(___,0,0x000),
    DN(___,0,0x000),
    DN(Ds3,9,0x000),
    DN(___,0,0x000),
    DN(___,0,0x000),
    DN(___,0,0x000),
    DN(G_3,3,0x280),
    DN(Ds3,9,0x000),
    DN(___,0,0x000),
    DN(___,0,0x000),
    DN(C_3,9,0x000),
    DN(___,0,0x000),
    DN(___,0,0x000),
    DN(___,0,0x000),
    DN(C_5,3,0x2FF),
    DN(Ds3,9,0x000),
    DN(___,0,0x000),
    DN(___,0,0x000),
    DN(C_3,9,0x000),
    DN(___,0,0x000),
    DN(___,0,0x000),
    DN(___,0,0x000),
};
static const unsigned char P27[] = {
    DN(G_3,3,0x280),
    DN(Cs3,9,0x000),
    DN(___,0,0x000),
    DN(___,0,0x000),
    DN(___,0,0x000),
    DN(___,0,0x000),
    DN(___,0,0x000),
    DN(___,0,0x000),
    DN(C_5,3,0x2FF),
    DN(Cs3,9,0x000),
    DN(___,0,0x000),
    DN(___,0,0x000),
    DN(Ds3,9,0x000),
    DN(___,0,0x000),
    DN(___,0,0x000),
    DN(___,0,0x000),
    DN(G_3,3,0x280),
    DN(Ds3,9,0x000),
    DN(___,0,0x000),
    DN(___,0,0x000),
    DN(___,0,0x000),
    DN(___,0,0x000),
    DN(___,0,0x000),
    DN(___,0,0x000),
    DN(C_5,3,0x2FF),
    DN(E_3,9,0x000),
    DN(___,0,0x000),
    DN(___,0,0x000),
    DN(___,0,0x000),
    DN(___,0,0x000),
    DN(___,0,0x000),
    DN(___,0,0x000),
    DN(G_3,3,0x280),
    DN(E_3,9,0x000),
    DN(___,0,0x000),
    DN(___,0,0x000),
    DN(Fs3,9,0x000),
    DN(___,0,0x000),
    DN(___,0,0x000),
    DN(___,0,0x000),
    DN(C_5,3,0x2FF),
    DN(Fs3,9,0x000),
    DN(___,0,0x000),
    DN(___,0,0x000),
    DN(___,0,0x000),
    DN(___,0,0x000),
    DN(___,0,0x000),
    DN(___,0,0x000),
    DN(G_3,3,0x280),
    DN(E_3,9,0x000),
    DN(___,0,0x000),
    DN(___,0,0x000),
    DN(___,0,0x000),
    DN(___,0,0x000),
    DN(___,0,0x000),
    DN(___,0,0x000),
    DN(C_5,3,0x2FF),
    DN(Fs3,9,0x000),
    DN(___,0,0x000),
    DN(___,0,0x000),
    DN(___,0,0x000),
    DN(___,0,0x000),
    DN(___,0,0x000),
    DN(___,0,0x000),
};
static const unsigned char P28[] = {
    DN(G_3,3,0x280),
    DN(G_3,9,0x000),
    DN(___,0,0x000),
    DN(___,0,0x000),
    DN(___,0,0x000),
    DN(___,0,0x000),
    DN(___,0,0x000),
    DN(___,0,0x000),
    DN(C_5,3,0x2FF),
    DN(G_3,9,0x000),
    DN(___,0,0x000),
    DN(___,0,0x000),
    DN(Ds3,9,0x000),
    DN(___,0,0x000),
    DN(___,0,0x000),
    DN(___,0,0x000),
    DN(G_3,3,0x280),
    DN(Ds3,9,0x000),
    DN(___,0,0x000),
    DN(___,0,0x000),
    DN(___,0,0x000),
    DN(___,0,0x000),
    DN(___,0,0x000),
    DN(___,0,0x000),
    DN(C_5,3,0x2FF),
    DN(Gs3,9,0x000),
    DN(___,0,0x000),
    DN(___,0,0x000),
    DN(___,0,0x000),
    DN(___,0,0x000),
    DN(___,0,0x000),
    DN(___,0,0x000),
    DN(G_3,3,0x280),
    DN(Gs3,9,0x000),
    DN(___,0,0x000),
    DN(___,0,0x000),
    DN(___,0,0x000),
    DN(___,0,0x000),
    DN(___,0,0x000),
    DN(___,0,0x000),
    DN(C_5,3,0x2FF),
    DN(Gs3,9,0x000),
    DN(___,0,0x000),
    DN(___,0,0x000),
    DN(___,0,0x000),
    DN(___,0,0x000),
    DN(___,0,0x000),
    DN(___,0,0x000),
    DN(G_3,3,0x280),
    DN(Gs3,9,0x000),
    DN(___,0,0x000),
    DN(___,0,0x000),
    DN(___,0,0x000),
    DN(___,0,0x000),
    DN(___,0,0x000),
    DN(___,0,0x000),
    DN(C_5,3,0x2FF),
    DN(Gs3,9,0x000),
    DN(___,0,0x000),
    DN(___,0,0x000),
    DN(___,0,0x000),
    DN(___,0,0x000),
    DN(___,0,0x000),
    DN(___,0,0x000),
};
static const unsigned char P29[] = {
    DN(G_3,3,0x280),
    DN(Cs3,9,0x000),
    DN(___,0,0x000),
    DN(___,0,0x000),
    DN(___,0,0x000),
    DN(___,0,0x000),
    DN(___,0,0x000),
    DN(___,0,0x000),
    DN(C_5,3,0x2FF),
    DN(Cs4,9,0x000),
    DN(___,0,0x000),
    DN(___,0,0x000),
    DN(Cs3,9,0x000),
    DN(___,0,0x000),
    DN(___,0,0x000),
    DN(___,0,0x000),
    DN(G_3,3,0x280),
    DN(Cs3,9,0x000),
    DN(___,0,0x000),
    DN(___,0,0x000),
    DN(Cs4,9,0x000),
    DN(___,0,0x000),
    DN(___,0,0x000),
    DN(___,0,0x000),
    DN(C_5,3,0x2FF),
    DN(Cs3,9,0x000),
    DN(___,0,0x000),
    DN(___,0,0x000),
    DN(___,0,0x000),
    DN(___,0,0x000),
    DN(___,0,0x000),
    DN(___,0,0x000),
    DN(G_3,3,0x280),
    DN(Ds3,9,0x000),
    DN(___,0,0x000),
    DN(___,0,0x000),
    DN(___,0,0x000),
    DN(___,0,0x000),
    DN(___,0,0x000),
    DN(___,0,0x000),
    DN(C_5,3,0x2FF),
    DN(Ds4,9,0x000),
    DN(___,0,0x000),
    DN(___,0,0x000),
    DN(Ds3,9,0x000),
    DN(___,0,0x000),
    DN(___,0,0x000),
    DN(___,0,0x000),
    DN(G_3,3,0x280),
    DN(Ds3,9,0x000),
    DN(___,0,0x000),
    DN(___,0,0x000),
    DN(Ds4,9,0x000),
    DN(___,0,0x000),
    DN(___,0,0x000),
    DN(___,0,0x000),
    DN(C_5,3,0x2FF),
    DN(Ds3,9,0x000),
    DN(___,0,0x000),
    DN(___,0,0x000),
    DN(___,0,0x000),
    DN(___,0,0x000),
    DN(___,0,0x000),
    DN(___,0,0x000),
};
static const unsigned char P30[] = {
    DN(G_3,3,0x280),
    DN(E_3,9,0x000),
    DN(___,0,0x000),
    DN(___,0,0x000),
    DN(___,0,0x000),
    DN(___,0,0x000),
    DN(___,0,0x000),
    DN(___,0,0x000),
    DN(C_5,3,0x2FF),
    DN(E_4,9,0x000),
    DN(___,0,0x000),
    DN(___,0,0x000),
    DN(E_3,9,0x000),
    DN(___,0,0x000),
    DN(___,0,0x000),
    DN(___,0,0x000),
    DN(G_3,3,0x280),
    DN(E_3,9,0x000),
    DN(___,0,0x000),
    DN(___,0,0x000),
    DN(E_4,9,0x000),
    DN(___,0,0x000),
    DN(___,0,0x000),
    DN(___,0,0x000),
    DN(C_5,3,0x2FF),
    DN(E_3,9,0x000),
    DN(___,0,0x000),
    DN(___,0,0x000),
    DN(___,0,0x000),
    DN(___,0,0x000),
    DN(___,0,0x000),
    DN(___,0,0x000),
    DN(G_3,3,0x280),
    DN(Fs3,9,0x000),
    DN(___,0,0x000),
    DN(___,0,0x000),
    DN(___,0,0x000),
    DN(___,0,0x000),
    DN(___,0,0x000),
    DN(___,0,0x000),
    DN(C_5,3,0x2FF),
    DN(Fs4,9,0x000),
    DN(___,0,0x000),
    DN(___,0,0x000),
    DN(Fs3,9,0x000),
    DN(___,0,0x000),
    DN(___,0,0x000),
    DN(___,0,0x000),
    DN(G_3,3,0x280),
    DN(Fs3,9,0x000),
    DN(___,0,0x000),
    DN(___,0,0x000),
    DN(Fs4,9,0x000),
    DN(___,0,0x000),
    DN(___,0,0x000),
    DN(___,0,0x000),
    DN(C_5,3,0x2FF),
    DN(Fs3,9,0x000),
    DN(C_5,3,0x2FF),
    DN(Fs3,9,0x000),
    DN(C_5,3,0x2FF),
    DN(Fs3,9,0x000),
    DN(C_5,3,0x2FF),
    DN(Fs3,9,0x000),
};
static const unsigned char P31[] = {
    DN(G_3,3,0x280),
    DN(Cs3,9,0x000),
    DN(___,0,0x000),
    DN(___,0,0x000),
    DN(___,0,0x000),
    DN(___,0,0x000),
    DN(___,0,0x000),
    DN(___,0,0x000),
    DN(C_5,3,0x2FF),
    DN(Cs4,9,0x000),
    DN(___,0,0x000),
    DN(___,0,0x000),
    DN(Cs3,9,0x000),
    DN(___,0,0x000),
    DN(___,0,0x000),
    DN(___,0,0x000),
    DN(G_3,3,0x280),
    DN(Cs3,9,0x000),
    DN(___,0,0x000),
    DN(___,0,0x000),
    DN(Cs4,9,0x000),
    DN(___,0,0x000),
    DN(___,0,0x000),
    DN(___,0,0x000),
    DN(C_5,3,0x2FF),
    DN(Cs3,9,0x000),
    DN(___,0,0x000),
    DN(___,0,0x000),
    DN(___,0,0x000),
    DN(___,0,0x000),
    DN(___,0,0x000),
    DN(___,0,0x000),
    DN(G_3,3,0x280),
    DN(Cs3,9,0x000),
    DN(___,0,0x000),
    DN(___,0,0x000),
    DN(___,0,0x000),
    DN(___,0,0x000),
    DN(___,0,0x000),
    DN(___,0,0x000),
    DN(C_5,3,0x2FF),
    DN(Cs4,9,0x000),
    DN(___,0,0x000),
    DN(___,0,0x000),
    DN(Cs3,9,0x000),
    DN(___,0,0x000),
    DN(___,0,0x000),
    DN(___,0,0x000),
    DN(G_3,3,0x280),
    DN(Cs3,9,0x000),
    DN(___,0,0x000),
    DN(___,0,0x000),
    DN(Cs4,9,0x000),
    DN(___,0,0x000),
    DN(___,0,0x000),
    DN(___,0,0x000),
    DN(C_5,3,0x2FF),
    DN(Cs3,9,0x000),
    DN(___,0,0x000),
    DN(___,0,0x000),
    DN(___,0,0x000),
    DN(___,0,0x000),
    DN(___,0,0x000),
    DN(___,0,0xB03),
};
static const unsigned char P32[] = {
    DN(B_6,1,0x481),
    DN(Cs7,2,0x481),
    DN(Cs7,3,0x481),
    DN(Cs7,4,0x481),
    DN(Cs7,5,0x481),
    DN(Cs7,6,0x481),
    DN(Cs7,7,0x481),
    DN(Cs7,8,0x481),
    DN(B_6,9,0x481),
    DN(B_6,10,0x481),
    DN(B_6,11,0x481),
    DN(B_6,12,0x481),
    DN(Cs7,13,0x481),
    DN(Cs7,12,0x481),
    DN(Cs7,11,0x481),
    DN(Cs7,10,0x481),
    DN(Cs7,9,0x481),
    DN(Cs7,8,0x481),
    DN(Cs7,7,0x481),
    DN(Cs7,6,0x481),
    DN(E_7,5,0x481),
    DN(E_7,4,0x481),
    DN(E_7,3,0x481),
    DN(E_7,2,0x481),
    DN(Gs7,1,0x481),
    DN(Gs7,2,0x481),
    DN(Gs7,3,0x481),
    DN(Gs7,4,0x481),
    DN(E_7,5,0x481),
    DN(Fs7,6,0x481),
    DN(Fs7,7,0x481),
    DN(Fs7,8,0x481),
    DN(Fs7,9,0x481),
    DN(Fs7,10,0x481),
    DN(Fs7,11,0x481),
    DN(Fs7,12,0x481),
    DN(E_7,13,0x481),
    DN(E_7,12,0x481),
    DN(D_7,11,0x481),
    DN(D_7,10,0x481),
    DN(B_6,9,0x481),
    DN(B_6,8,0x481),
    DN(Gs6,7,0x481),
    DN(Gs6,6,0x481),
    DN(Fs6,5,0x481),
    DN(Fs6,4,0x481),
    DN(E_6,3,0x481),
    DN(E_6,2,0x481),
    DN(Ds6,1,0x481),
    DN(Ds6,2,0x481),
    DN(Cs6,3,0x481),
    DN(Cs6,4,0x481),
    DN(B_5,5,0x481),
    DN(B_5,6,0x481),
    DN(B_5,7,0x481),
    DN(B_5,8,0x481),
    DN(E_6,9,0x481),
    DN(E_6,10,0x481),
    DN(E_6,11,0x481),
    DN(E_6,12,0x481),
    DN(Fs6,13,0x481),
    DN(Fs6,12,0x481),
    DN(Fs6,11,0x481),
    DN(Fs6,10,0x481),
};
static const unsigned char P33[] = {
    DN(Gs6,9,0x481),
    DN(Gs6,8,0x481),
    DN(Gs6,7,0x481),
    DN(Gs6,6,0x481),
    DN(Gs6,5,0x481),
    DN(Gs6,4,0x481),
    DN(Gs6,3,0x481),
    DN(Gs6,2,0x481),
    DN(Cs6,1,0x481),
    DN(Cs6,2,0x481),
    DN(Cs6,3,0x481),
    DN(Cs6,4,0x481),
    DN(Fs6,5,0x481),
    DN(Gs6,6,0x481),
    DN(Gs6,7,0x481),
    DN(Gs6,8,0x481),
    DN(Gs6,9,0x481),
    DN(Gs6,10,0x481),
    DN(Gs6,11,0x481),
    DN(Gs6,12,0x481),
    DN(E_7,13,0x481),
    DN(E_7,12,0x481),
    DN(E_7,11,0x481),
    DN(E_7,10,0x481),
    DN(Gs7,9,0x481),
    DN(Gs7,8,0x481),
    DN(Gs7,7,0x481),
    DN(Gs7,6,0x481),
    DN(Fs7,5,0x481),
    DN(Fs7,4,0x481),
    DN(Fs7,3,0x481),
    DN(Fs7,2,0x481),
    DN(Fs7,1,0x481),
    DN(Fs7,2,0x481),
    DN(Fs7,3,0x481),
    DN(Fs7,4,0x481),
    DN(B_7,5,0x481),
    DN(B_7,6,0x481),
    DN(B_7,7,0x481),
    DN(B_7,8,0x481),
    DN(B_7,9,0x481),
    DN(B_7,10,0x481),
    DN(B_7,11,0x481),
    DN(B_7,12,0x481),
    DN(Fs7,13,0x481),
    DN(Gs7,12,0x481),
    DN(Gs7,11,0x481),
    DN(Gs7,10,0x481),
    DN(Gs7,9,0x481),
    DN(Gs7,8,0x481),
    DN(Gs7,7,0x481),
    DN(Gs7,6,0x481),
    DN(Gs7,5,0x481),
    DN(Gs7,4,0x481),
    DN(Gs7,3,0x481),
    DN(Gs7,2,0x481),
    DN(Gs7,1,0x481),
    DN(Gs7,2,0x481),
    DN(Gs7,3,0x481),
    DN(Gs7,4,0x481),
    DN(Cs7,5,0x481),
    DN(Cs7,6,0x481),
    DN(B_6,7,0x481),
    DN(B_6,8,0x481),
};
static const unsigned char P34[] = {
    DN(Cs7,9,0x481),
    DN(Cs7,10,0x481),
    DN(Gs6,11,0x481),
    DN(Gs6,12,0x481),
    DN(G_6,13,0x481),
    DN(G_6,12,0x481),
    DN(Gs6,11,0x481),
    DN(Gs6,10,0x481),
    DN(Ds7,9,0x481),
    DN(Ds7,8,0x481),
    DN(Gs6,7,0x481),
    DN(Gs6,6,0x481),
    DN(G_6,5,0x481),
    DN(G_6,4,0x481),
    DN(Gs6,3,0x481),
    DN(Gs6,2,0x481),
    DN(E_7,1,0x481),
    DN(E_7,2,0x481),
    DN(Gs6,3,0x481),
    DN(Gs6,4,0x481),
    DN(G_6,5,0x481),
    DN(G_6,6,0x481),
    DN(Gs6,7,0x481),
    DN(Gs6,8,0x481),
    DN(Fs7,9,0x481),
    DN(Fs7,10,0x481),
    DN(A_6,11,0x481),
    DN(A_6,12,0x481),
    DN(Gs6,13,0x481),
    DN(Gs6,12,0x481),
    DN(A_6,11,0x481),
    DN(A_6,10,0x481),
    DN(Gs7,9,0x481),
    DN(Gs7,8,0x481),
    DN(Cs7,7,0x481),
    DN(Cs7,6,0x481),
    DN(C_7,5,0x481),
    DN(C_7,4,0x481),
    DN(Cs7,3,0x481),
    DN(Cs7,2,0x481),
    DN(A_7,1,0x481),
    DN(A_7,2,0x481),
    DN(Cs7,3,0x481),
    DN(Cs7,4,0x481),
    DN(C_7,5,0x481),
    DN(C_7,6,0x481),
    DN(Cs7,7,0x481),
    DN(Cs7,8,0x481),
    DN(As7,9,0x481),
    DN(Ds7,10,0x481),
    DN(D_7,11,0x481),
    DN(Ds7,12,0x481),
    DN(B_7,13,0x481),
    DN(Ds7,12,0x481),
    DN(D_7,11,0x481),
    DN(Ds7,10,0x481),
    DN(C_8,9,0x481),
    DN(E_7,8,0x481),
    DN(Ds7,7,0x481),
    DN(E_7,6,0x481),
    DN(Cs8,5,0x481),
    DN(Ds8,4,0x481),
    DN(Ds8,3,0x481),
    DN(Ds8,2,0x481),
};
static const unsigned char P35[] = {
    DN(Ds8,1,0x481),
    DN(Ds8,2,0x481),
    DN(Ds8,3,0x481),
    DN(Ds8,4,0x481),
    DN(Cs8,5,0x481),
    DN(Cs8,6,0x481),
    DN(Cs8,7,0x481),
    DN(Cs8,8,0x481),
    DN(Ds8,9,0x481),
    DN(Ds8,10,0x481),
    DN(Ds8,11,0x481),
    DN(Ds8,12,0x481),
    DN(Cs8,13,0x481),
    DN(Cs8,12,0x481),
    DN(Cs8,11,0x481),
    DN(Cs8,10,0x481),
    DN(E_8,9,0x481),
    DN(E_8,8,0x481),
    DN(E_8,7,0x481),
    DN(E_8,6,0x481),
    DN(Cs8,5,0x481),
    DN(Cs8,4,0x481),
    DN(Cs8,3,0x481),
    DN(Cs8,2,0x481),
    DN(E_8,1,0x481),
    DN(E_8,2,0x481),
    DN(E_8,3,0x481),
    DN(E_8,4,0x481),
    DN(Cs8,5,0x481),
    DN(Cs8,6,0x481),
    DN(Cs8,7,0x481),
    DN(Cs8,8,0x481),
    DN(Fs8,9,0x481),
    DN(Fs8,10,0x481),
    DN(Fs8,11,0x481),
    DN(Fs8,12,0x481),
    DN(G_8,13,0x481),
    DN(G_8,12,0x481),
    DN(G_8,11,0x481),
    DN(G_8,10,0x481),
    DN(Fs8,9,0x481),
    DN(Fs8,8,0x481),
    DN(Fs8,7,0x481),
    DN(Fs8,6,0x481),
    DN(E_8,5,0x481),
    DN(E_8,4,0x481),
    DN(E_8,3,0x481),
    DN(E_8,2,0x481),
    DN(B_7,1,0x481),
    DN(B_7,2,0x481),
    DN(B_7,3,0x481),
    DN(B_7,4,0x481),
    DN(C_8,5,0x481),
    DN(C_8,6,0x481),
    DN(C_8,7,0x481),
    DN(C_8,8,0x481),
    DN(C_8,9,0x481),
    DN(C_8,10,0x481),
    DN(C_8,11,0x481),
    DN(C_8,12,0x481),
    DN(Cs8,13,0x481),
    DN(Cs8,12,0x481),
    DN(Cs8,11,0x481),
    DN(Cs8,10,0x481),
};
static const unsigned char P36[] = {
    DN(Cs8,9,0x481),
    DN(Cs8,8,0x481),
    DN(Cs8,7,0x481),
    DN(Cs8,6,0x481),
    DN(Cs8,5,0x481),
    DN(Cs8,4,0x481),
    DN(Cs8,3,0x481),
    DN(Cs8,2,0x481),
    DN(Cs8,1,0x481),
    DN(Cs8,2,0x481),
    DN(Cs8,3,0x481),
    DN(Cs8,4,0x481),
    DN(Cs8,5,0x481),
    DN(Cs8,6,0x481),
    DN(Cs8,7,0x481),
    DN(Cs8,8,0x481),
    DN(Cs7,9,0x481),
    DN(Cs7,10,0x481),
    DN(Cs7,11,0x481),
    DN(Cs7,12,0x481),
    DN(Cs7,13,0x481),
    DN(Cs7,12,0x481),
    DN(Cs7,11,0x481),
    DN(Cs7,10,0x481),
    DN(Cs7,9,0x481),
    DN(Cs7,8,0x481),
    DN(Cs7,7,0x481),
    DN(Cs7,6,0x481),
    DN(Cs7,5,0x481),
    DN(Cs7,4,0x481),
    DN(Cs7,3,0x481),
    DN(Cs7,2,0x481),
    DN(Cs6,1,0x481),
    DN(Cs6,2,0x481),
    DN(Cs6,3,0x481),
    DN(Cs6,4,0x481),
    DN(Cs6,5,0x481),
    DN(Cs6,6,0x481),
    DN(Cs6,7,0x481),
    DN(Cs6,8,0x481),
    DN(Cs6,9,0x481),
    DN(Cs6,10,0x481),
    DN(Cs6,11,0x481),
    DN(Cs6,12,0x481),
    DN(Cs6,13,0x481),
    DN(Cs6,12,0x481),
    DN(Cs6,11,0x481),
    DN(Cs6,10,0x481),
    DN(Cs5,9,0x481),
    DN(Cs5,8,0x481),
    DN(Cs5,7,0x481),
    DN(Cs5,6,0x481),
    DN(Cs5,5,0x481),
    DN(Cs5,4,0x481),
    DN(Cs5,3,0x481),
    DN(Cs5,2,0x481),
    DN(Cs5,1,0x481),
    DN(Cs5,2,0x481),
    DN(Cs5,3,0x481),
    DN(Cs5,4,0x481),
    DN(Cs5,5,0x481),
    DN(Cs5,6,0x481),
    DN(Cs5,7,0x481),
    DN(___,0,0xE00),
};

static const unsigned char* const order1[] = {P0,P0,P0,P0,P0,P0,P0,P0,P0,P0,P0,P0,P0,P0,P0,P0,P0,P0,P0,P0,P0,P0,P0,P0,P0,P0,P0,P0};
static const unsigned char* const order2[] = {P0,P5,P21,P21,P21,P21,P25,P26,P27,P28,P22,P23,P23,P23,P24,P29,P30,P29,P30,P29,P30,P29,P30,P29,P30,P29,P30,P31};
static const unsigned char* const order3[] = {P1,P3,P6,P8,P6,P8,P9,P10,P11,P12,P0,P14,P15,P14,P16,P14,P15,P14,P16,P14,P15,P14,P16,P32,P33,P34,P35,P36};
static const unsigned char* const order4[] = {P0,P4,P7,P7,P7,P7,P7,P7,P7,P7,P13,P17,P17,P17,P18,P19,P20,P19,P20,P19,P20,P19,P20,P19,P20,P19,P20,P19};

static const hUGEDutyInstr_t duty_instruments[] = {
    {8,0,240,0,128},
    {8,64,240,0,128},
    {8,128,240,0,128},
    {8,192,240,0,128},
    {8,0,241,0,128},
    {8,64,241,0,128},
    {8,128,241,0,128},
    {8,192,241,0,128},
    {8,0,192,0,128},
};
static const hUGEWaveInstr_t wave_instruments[] = {
    {0,32,0,0,128},
    {0,32,1,0,128},
    {0,32,2,0,128},
    {0,32,3,0,128},
    {0,32,4,0,128},
    {0,32,5,0,128},
    {0,32,6,0,128},
    {0,32,7,0,128},
    {0,32,8,0,128},
    {0,32,9,0,128},
    {0,32,10,0,128},
    {0,32,11,0,128},
    {0,32,12,0,128},
    {0,32,13,0,128},
    {0,32,14,0,128},
};
static const hUGENoiseInstr_t noise_instruments[] = {
    {241,0,0,0,0},
    {113,0,0,0,0},
    {242,0,0,0,0},
    {114,0,0,0,0},
};

static const unsigned char waves[] = {
    0,0,0,0,0,0,0,0,255,255,255,255,255,255,255,255,
    0,0,0,0,0,0,0,0,15,255,255,255,255,255,255,255,
    0,0,0,0,0,0,0,0,0,255,255,255,255,255,255,255,
    0,0,0,0,0,0,0,0,0,15,255,255,255,255,255,255,
    0,0,0,0,0,0,0,0,0,0,255,255,255,255,255,255,
    0,0,0,0,0,0,0,0,0,0,15,255,255,255,255,255,
    0,0,0,0,0,0,0,0,0,0,0,255,255,255,255,255,
    0,0,0,0,0,0,0,0,0,0,0,15,255,255,255,255,
    0,0,0,0,0,0,0,0,0,0,0,0,255,255,255,255,
    0,0,0,0,0,0,0,0,0,0,0,0,15,255,255,255,
    0,0,0,0,0,0,0,0,0,0,0,0,0,255,255,255,
    0,0,0,0,0,0,0,0,0,0,0,0,0,15,255,255,
    0,0,0,0,0,0,0,0,0,0,0,0,0,0,255,255,
    0,17,34,51,68,85,102,119,136,153,170,187,204,221,238,255,
    1,35,69,103,137,171,205,239,254,220,186,152,118,84,50,16,
};

const hUGESong_t MUS_TITLE_SCREEN = {4, &order_cnt, order1, order2, order3,order4, duty_instruments, wave_instruments, noise_instruments, NULL, waves};
