#include "hUGEDriver.h"
#include <stddef.h>

static const unsigned char order_cnt = 30;

static const unsigned char P0[] = {
    DN(___,0,0x000),
    DN(___,0,0x000),
    DN(___,0,0x000),
    DN(___,0,0x000),
    DN(___,0,0x000),
    DN(___,0,0x000),
    DN(___,0,0x000),
    DN(___,0,0x000),
    DN(___,0,0x000),
    DN(___,0,0x000),
    DN(___,0,0x000),
    DN(___,0,0x000),
    DN(___,0,0x000),
    DN(___,0,0x000),
    DN(___,0,0x000),
    DN(___,0,0x000),
    DN(___,0,0x000),
    DN(___,0,0x000),
    DN(___,0,0x000),
    DN(___,0,0x000),
    DN(___,0,0x000),
    DN(___,0,0x000),
    DN(___,0,0x000),
    DN(___,0,0x000),
    DN(___,0,0x000),
    DN(___,0,0x000),
    DN(___,0,0x000),
    DN(___,0,0x000),
    DN(___,0,0x000),
    DN(___,0,0x000),
    DN(___,0,0x000),
    DN(___,0,0x000),
    DN(___,0,0x000),
    DN(___,0,0x000),
    DN(___,0,0x000),
    DN(___,0,0x000),
    DN(___,0,0x000),
    DN(___,0,0x000),
    DN(___,0,0x000),
    DN(___,0,0x000),
    DN(___,0,0x000),
    DN(___,0,0x000),
    DN(___,0,0x000),
    DN(___,0,0x000),
    DN(___,0,0x000),
    DN(___,0,0x000),
    DN(___,0,0x000),
    DN(___,0,0x000),
    DN(___,0,0x000),
    DN(___,0,0x000),
    DN(___,0,0x000),
    DN(___,0,0x000),
    DN(___,0,0x000),
    DN(___,0,0x000),
    DN(___,0,0x000),
    DN(___,0,0x000),
    DN(___,0,0x000),
    DN(___,0,0x000),
    DN(___,0,0x000),
    DN(___,0,0x000),
    DN(___,0,0x000),
    DN(___,0,0x000),
    DN(___,0,0x000),
    DN(___,0,0x000),
};
static const unsigned char P1[] = {
    DN(C_8,15,0x481),
    DN(___,0,0x481),
    DN(___,0,0x481),
    DN(___,0,0x481),
    DN(___,0,0x481),
    DN(___,0,0x481),
    DN(___,0,0x481),
    DN(___,0,0x481),
    DN(___,0,0x481),
    DN(___,0,0x481),
    DN(___,0,0x481),
    DN(___,0,0x481),
    DN(___,0,0x481),
    DN(___,0,0x481),
    DN(___,0,0x481),
    DN(___,0,0x481),
    DN(___,0,0x481),
    DN(___,0,0x481),
    DN(___,0,0x481),
    DN(___,0,0x481),
    DN(___,0,0x481),
    DN(___,0,0x481),
    DN(___,0,0x481),
    DN(___,0,0x481),
    DN(As7,15,0x481),
    DN(___,0,0x481),
    DN(___,0,0xE00),
    DN(___,0,0x000),
    DN(Gs7,15,0x481),
    DN(___,0,0x481),
    DN(___,0,0xE00),
    DN(___,0,0x000),
    DN(Gs7,15,0x481),
    DN(As7,15,0x481),
    DN(___,0,0x481),
    DN(___,0,0x481),
    DN(C_8,15,0x481),
    DN(___,0,0x481),
    DN(Gs7,15,0x481),
    DN(___,0,0x481),
    DN(___,0,0xE00),
    DN(___,0,0x000),
    DN(___,0,0x000),
    DN(___,0,0x000),
    DN(___,0,0x000),
    DN(___,0,0x000),
    DN(___,0,0x000),
    DN(___,0,0x000),
    DN(___,0,0x000),
    DN(___,0,0x000),
    DN(___,0,0x000),
    DN(___,0,0x000),
    DN(___,0,0x000),
    DN(___,0,0x000),
    DN(___,0,0x000),
    DN(___,0,0x000),
    DN(___,0,0x000),
    DN(___,0,0x000),
    DN(F_7,15,0x481),
    DN(___,0,0x481),
    DN(Gs7,15,0x481),
    DN(___,0,0x481),
    DN(As7,15,0x481),
    DN(___,0,0x481),
};
static const unsigned char P2[] = {
    DN(C_8,15,0x481),
    DN(___,0,0xE00),
    DN(C_8,15,0x481),
    DN(___,0,0xE00),
    DN(As7,15,0x481),
    DN(___,0,0x481),
    DN(C_8,15,0x481),
    DN(___,0,0x481),
    DN(___,0,0xE00),
    DN(___,0,0x000),
    DN(As7,15,0x481),
    DN(___,0,0x481),
    DN(C_8,15,0x481),
    DN(___,0,0x481),
    DN(Cs8,15,0x481),
    DN(___,0,0x481),
    DN(___,0,0x481),
    DN(___,0,0x481),
    DN(___,0,0x481),
    DN(___,0,0x481),
    DN(C_8,15,0x481),
    DN(___,0,0x481),
    DN(___,0,0xE00),
    DN(___,0,0x000),
    DN(As7,15,0x481),
    DN(___,0,0x481),
    DN(___,0,0xE00),
    DN(___,0,0x000),
    DN(Gs7,15,0x481),
    DN(___,0,0x481),
    DN(___,0,0xE00),
    DN(___,0,0x000),
    DN(F_7,15,0x481),
    DN(G_7,15,0x481),
    DN(___,0,0x481),
    DN(___,0,0x481),
    DN(___,0,0x481),
    DN(___,0,0x481),
    DN(Ds7,15,0x481),
    DN(___,0,0x481),
    DN(___,0,0x481),
    DN(___,0,0x481),
    DN(___,0,0x481),
    DN(___,0,0x481),
    DN(F_7,15,0x481),
    DN(___,0,0x481),
    DN(___,0,0x481),
    DN(___,0,0x481),
    DN(___,0,0xE00),
    DN(___,0,0x000),
    DN(E_6,1,0x220),
    DN(E_6,1,0x220),
    DN(E_6,1,0x220),
    DN(___,0,0xE00),
    DN(E_6,1,0x220),
    DN(___,0,0xE00),
    DN(C_6,1,0x220),
    DN(___,0,0xE00),
    DN(C_6,1,0x220),
    DN(___,0,0xE00),
    DN(C_6,1,0x220),
    DN(___,0,0xE00),
    DN(C_6,1,0x220),
    DN(___,0,0xE00),
};
static const unsigned char P3[] = {
    DN(C_8,2,0xF06),
    DN(___,0,0x000),
    DN(C_8,2,0xF03),
    DN(___,0,0x000),
    DN(C_8,2,0xF06),
    DN(___,0,0x000),
    DN(C_8,2,0xF03),
    DN(___,0,0x000),
    DN(C_7,1,0xF06),
    DN(___,0,0x000),
    DN(C_8,2,0xF03),
    DN(___,0,0x000),
    DN(C_8,4,0xF06),
    DN(___,0,0x000),
    DN(C_8,2,0xF03),
    DN(___,0,0x000),
    DN(C_8,2,0xF06),
    DN(___,0,0x000),
    DN(C_8,2,0xF03),
    DN(___,0,0x000),
    DN(C_8,2,0xF06),
    DN(___,0,0x000),
    DN(C_8,2,0xF03),
    DN(___,0,0x000),
    DN(C_7,1,0xF06),
    DN(___,0,0x000),
    DN(C_8,2,0xF03),
    DN(___,0,0x000),
    DN(C_8,4,0xF06),
    DN(___,0,0x000),
    DN(C_8,2,0xF03),
    DN(___,0,0x000),
    DN(C_8,2,0xF06),
    DN(___,0,0x000),
    DN(C_8,2,0xF03),
    DN(___,0,0x000),
    DN(C_8,2,0xF06),
    DN(___,0,0x000),
    DN(C_8,2,0xF03),
    DN(___,0,0x000),
    DN(C_7,1,0xF06),
    DN(___,0,0x000),
    DN(C_8,2,0xF03),
    DN(___,0,0x000),
    DN(C_8,4,0xF06),
    DN(___,0,0x000),
    DN(C_8,2,0xF03),
    DN(___,0,0x000),
    DN(C_8,2,0xF06),
    DN(___,0,0x000),
    DN(C_8,2,0xF03),
    DN(___,0,0x000),
    DN(C_8,2,0xF06),
    DN(___,0,0x000),
    DN(C_8,2,0xF03),
    DN(___,0,0x000),
    DN(C_7,1,0xF06),
    DN(___,0,0x000),
    DN(C_8,2,0xF03),
    DN(___,0,0x000),
    DN(C_8,4,0xF06),
    DN(___,0,0x000),
    DN(C_8,2,0xF03),
    DN(___,0,0x000),
};
static const unsigned char P4[] = {
    DN(G_3,3,0x280),
    DN(F_3,9,0x000),
    DN(___,0,0x000),
    DN(___,0,0x000),
    DN(___,0,0xE00),
    DN(___,0,0x000),
    DN(G_3,3,0x280),
    DN(F_3,9,0x000),
    DN(C_5,3,0x2FF),
    DN(Gs3,9,0x000),
    DN(G_3,9,0x000),
    DN(___,0,0x000),
    DN(G_3,3,0x280),
    DN(F_3,9,0x000),
    DN(Cs3,9,0x000),
    DN(___,0,0x000),
    DN(___,0,0x000),
    DN(___,0,0x000),
    DN(G_3,3,0x280),
    DN(Cs4,9,0x000),
    DN(Cs3,9,0x000),
    DN(___,0,0x000),
    DN(Ds3,9,0x000),
    DN(___,0,0x000),
    DN(C_5,3,0x2FF),
    DN(Ds3,9,0x000),
    DN(Ds4,9,0x000),
    DN(___,0,0x000),
    DN(Ds3,9,0x000),
    DN(___,0,0x000),
    DN(___,0,0x000),
    DN(___,0,0x000),
    DN(G_3,3,0x280),
    DN(F_3,9,0x000),
    DN(___,0,0x000),
    DN(___,0,0x000),
    DN(___,0,0xE00),
    DN(___,0,0x000),
    DN(G_3,3,0x280),
    DN(F_3,9,0x000),
    DN(C_5,3,0x2FF),
    DN(Gs3,9,0x000),
    DN(G_3,9,0x000),
    DN(___,0,0x000),
    DN(G_3,3,0x280),
    DN(F_3,9,0x000),
    DN(Cs3,9,0x000),
    DN(___,0,0x000),
    DN(___,0,0x000),
    DN(___,0,0x000),
    DN(G_3,3,0x280),
    DN(Cs4,9,0x000),
    DN(Cs3,9,0x000),
    DN(___,0,0x000),
    DN(Ds3,9,0x000),
    DN(___,0,0x000),
    DN(C_5,3,0x2FF),
    DN(Ds3,9,0x000),
    DN(Ds4,9,0x000),
    DN(___,0,0x000),
    DN(Ds3,9,0x000),
    DN(___,0,0x000),
    DN(___,0,0x000),
    DN(___,0,0x000),
};
static const unsigned char P5[] = {
    DN(C_8,2,0xF06),
    DN(___,0,0x000),
    DN(C_8,2,0xF03),
    DN(___,0,0x000),
    DN(C_8,2,0xF06),
    DN(___,0,0x000),
    DN(C_8,2,0xF03),
    DN(___,0,0x000),
    DN(C_7,1,0xF06),
    DN(___,0,0x000),
    DN(C_8,2,0xF03),
    DN(___,0,0x000),
    DN(C_8,4,0xF06),
    DN(___,0,0x000),
    DN(C_8,2,0xF03),
    DN(___,0,0x000),
    DN(C_8,2,0xF06),
    DN(___,0,0x000),
    DN(C_8,2,0xF03),
    DN(___,0,0x000),
    DN(C_8,2,0xF06),
    DN(___,0,0x000),
    DN(C_8,2,0xF03),
    DN(___,0,0x000),
    DN(C_7,1,0xF06),
    DN(___,0,0x000),
    DN(C_8,2,0xF03),
    DN(___,0,0x000),
    DN(C_8,4,0xF06),
    DN(___,0,0x000),
    DN(C_8,2,0xF03),
    DN(___,0,0x000),
    DN(C_8,4,0xF06),
    DN(___,0,0x000),
    DN(___,0,0xF03),
    DN(___,0,0x000),
    DN(C_8,2,0xF06),
    DN(___,0,0x000),
    DN(C_8,4,0xF03),
    DN(___,0,0x000),
    DN(___,0,0xF06),
    DN(___,0,0x000),
    DN(C_8,2,0xF03),
    DN(___,0,0x000),
    DN(C_7,1,0xF06),
    DN(___,0,0x000),
    DN(___,0,0xF03),
    DN(___,0,0x000),
    DN(___,0,0xF06),
    DN(___,0,0x000),
    DN(___,0,0xF03),
    DN(___,0,0x000),
    DN(___,0,0xF06),
    DN(___,0,0x000),
    DN(___,0,0xF03),
    DN(___,0,0x000),
    DN(C_7,1,0xF06),
    DN(___,0,0x000),
    DN(___,0,0xF03),
    DN(___,0,0x000),
    DN(C_7,1,0xF06),
    DN(___,0,0x000),
    DN(C_7,1,0xF03),
    DN(___,0,0x000),
};
static const unsigned char P6[] = {
    DN(G_3,3,0x280),
    DN(F_3,9,0x000),
    DN(___,0,0x000),
    DN(___,0,0x000),
    DN(___,0,0xE00),
    DN(___,0,0x000),
    DN(G_3,3,0x280),
    DN(F_3,9,0x000),
    DN(C_5,3,0x2FF),
    DN(Gs3,9,0x000),
    DN(G_3,9,0x000),
    DN(___,0,0x000),
    DN(G_3,3,0x280),
    DN(F_3,9,0x000),
    DN(Cs3,9,0x000),
    DN(___,0,0x000),
    DN(___,0,0x000),
    DN(___,0,0x000),
    DN(G_3,3,0x280),
    DN(Cs4,9,0x000),
    DN(Cs3,9,0x000),
    DN(___,0,0x000),
    DN(Ds3,9,0x000),
    DN(___,0,0x000),
    DN(C_5,3,0x2FF),
    DN(Ds3,9,0x000),
    DN(Ds4,9,0x000),
    DN(___,0,0x000),
    DN(Ds3,9,0x000),
    DN(___,0,0x000),
    DN(___,0,0x000),
    DN(___,0,0x000),
    DN(G_3,3,0x280),
    DN(G_3,9,0x000),
    DN(___,0,0x000),
    DN(___,0,0x000),
    DN(___,0,0x000),
    DN(___,0,0x000),
    DN(G_3,3,0x280),
    DN(Ds3,9,0x000),
    DN(___,0,0x000),
    DN(___,0,0x000),
    DN(___,0,0x000),
    DN(___,0,0x000),
    DN(C_5,3,0x2FF),
    DN(F_3,9,0x000),
    DN(___,0,0x000),
    DN(___,0,0x000),
    DN(___,0,0xE00),
    DN(___,0,0x000),
    DN(___,0,0x000),
    DN(___,0,0x000),
    DN(___,0,0x000),
    DN(___,0,0x000),
    DN(___,0,0x000),
    DN(___,0,0x000),
    DN(C_5,3,0x2FF),
    DN(___,0,0xE00),
    DN(___,0,0x000),
    DN(___,0,0x000),
    DN(C_5,3,0x2FF),
    DN(___,0,0xE00),
    DN(C_5,3,0x2FF),
    DN(___,0,0xE00),
};
static const unsigned char P7[] = {
    DN(Gs5,14,0x049),
    DN(___,0,0x049),
    DN(___,0,0x049),
    DN(___,0,0x049),
    DN(___,0,0xE00),
    DN(___,0,0x000),
    DN(Gs5,14,0x049),
    DN(___,0,0x049),
    DN(C_6,14,0x038),
    DN(___,0,0x038),
    DN(As5,14,0x039),
    DN(___,0,0x039),
    DN(Gs5,14,0x049),
    DN(___,0,0x049),
    DN(F_5,14,0x038),
    DN(___,0,0x038),
    DN(___,0,0x038),
    DN(___,0,0x038),
    DN(___,0,0x038),
    DN(___,0,0x038),
    DN(___,0,0xE00),
    DN(___,0,0x000),
    DN(Ds5,14,0x049),
    DN(___,0,0x049),
    DN(___,0,0x049),
    DN(___,0,0x049),
    DN(___,0,0x049),
    DN(___,0,0x049),
    DN(___,0,0x049),
    DN(___,0,0x049),
    DN(___,0,0xE00),
    DN(___,0,0x000),
    DN(Gs5,14,0x049),
    DN(___,0,0x049),
    DN(___,0,0x049),
    DN(___,0,0x049),
    DN(___,0,0xE00),
    DN(___,0,0x000),
    DN(Gs5,14,0x049),
    DN(___,0,0x049),
    DN(C_6,14,0x038),
    DN(___,0,0x038),
    DN(As5,14,0x039),
    DN(___,0,0x039),
    DN(Gs5,14,0x049),
    DN(___,0,0x049),
    DN(F_5,14,0x038),
    DN(___,0,0x038),
    DN(___,0,0x038),
    DN(___,0,0x038),
    DN(___,0,0x038),
    DN(___,0,0x038),
    DN(___,0,0xE00),
    DN(___,0,0x000),
    DN(Ds5,14,0x049),
    DN(___,0,0x049),
    DN(___,0,0x049),
    DN(___,0,0x049),
    DN(___,0,0x049),
    DN(___,0,0x049),
    DN(___,0,0x049),
    DN(___,0,0x049),
    DN(___,0,0xE00),
    DN(___,0,0x000),
};
static const unsigned char P8[] = {
    DN(Gs6,14,0x049),
    DN(___,0,0x049),
    DN(___,0,0x049),
    DN(___,0,0x049),
    DN(___,0,0xE00),
    DN(___,0,0x000),
    DN(Gs6,14,0x049),
    DN(___,0,0x049),
    DN(C_7,14,0x038),
    DN(___,0,0x038),
    DN(As6,14,0x039),
    DN(___,0,0x039),
    DN(Gs6,14,0x049),
    DN(___,0,0x049),
    DN(F_6,14,0x038),
    DN(___,0,0x038),
    DN(___,0,0x038),
    DN(___,0,0x038),
    DN(___,0,0x038),
    DN(___,0,0x038),
    DN(___,0,0xE00),
    DN(___,0,0x000),
    DN(Ds6,14,0x049),
    DN(___,0,0x049),
    DN(___,0,0x049),
    DN(___,0,0x049),
    DN(___,0,0x049),
    DN(___,0,0x049),
    DN(___,0,0x049),
    DN(___,0,0x049),
    DN(___,0,0xE00),
    DN(___,0,0x000),
    DN(Gs6,14,0x049),
    DN(___,0,0x049),
    DN(___,0,0x049),
    DN(___,0,0x049),
    DN(___,0,0xE00),
    DN(___,0,0x000),
    DN(Gs6,14,0x049),
    DN(___,0,0x049),
    DN(C_7,14,0x038),
    DN(___,0,0x038),
    DN(As6,14,0x039),
    DN(___,0,0x039),
    DN(Gs6,14,0x049),
    DN(___,0,0x049),
    DN(F_6,14,0x038),
    DN(___,0,0x038),
    DN(___,0,0x038),
    DN(___,0,0x038),
    DN(___,0,0x038),
    DN(___,0,0x038),
    DN(___,0,0xE00),
    DN(___,0,0x000),
    DN(Ds6,14,0x049),
    DN(___,0,0x049),
    DN(___,0,0x049),
    DN(___,0,0x049),
    DN(___,0,0x049),
    DN(___,0,0x049),
    DN(___,0,0x049),
    DN(___,0,0x049),
    DN(___,0,0xE00),
    DN(___,0,0x000),
};
static const unsigned char P9[] = {
    DN(G_3,3,0x280),
    DN(F_3,9,0x000),
    DN(___,0,0x000),
    DN(___,0,0x000),
    DN(___,0,0xE00),
    DN(___,0,0x000),
    DN(G_3,3,0x280),
    DN(F_3,9,0x000),
    DN(C_5,3,0x2FF),
    DN(Gs3,9,0x000),
    DN(G_3,9,0x000),
    DN(___,0,0x000),
    DN(G_3,3,0x280),
    DN(F_3,9,0x000),
    DN(Cs3,9,0x000),
    DN(___,0,0x000),
    DN(___,0,0x000),
    DN(___,0,0x000),
    DN(G_3,3,0x280),
    DN(Cs4,9,0x000),
    DN(Cs3,9,0x000),
    DN(___,0,0x000),
    DN(Ds3,9,0x000),
    DN(___,0,0x000),
    DN(C_5,3,0x2FF),
    DN(Ds3,9,0x000),
    DN(Ds4,9,0x000),
    DN(___,0,0x000),
    DN(Ds3,9,0x000),
    DN(___,0,0x000),
    DN(___,0,0x000),
    DN(___,0,0x000),
    DN(G_3,3,0x280),
    DN(G_3,9,0x000),
    DN(___,0,0x000),
    DN(___,0,0x000),
    DN(___,0,0x000),
    DN(___,0,0x000),
    DN(G_3,3,0x280),
    DN(Ds3,9,0x000),
    DN(___,0,0x000),
    DN(___,0,0x000),
    DN(___,0,0x000),
    DN(___,0,0x000),
    DN(C_5,3,0x2FF),
    DN(F_3,9,0x000),
    DN(___,0,0x000),
    DN(___,0,0x000),
    DN(___,0,0x000),
    DN(___,0,0x000),
    DN(G_3,9,0x000),
    DN(___,0,0x000),
    DN(Gs3,9,0x000),
    DN(___,0,0x000),
    DN(As3,9,0x000),
    DN(___,0,0x000),
    DN(C_5,3,0x2FF),
    DN(G_3,9,0x000),
    DN(___,0,0x000),
    DN(___,0,0x000),
    DN(C_5,3,0x2FF),
    DN(Ds3,9,0x000),
    DN(C_5,3,0x2FF),
    DN(F_3,9,0x000),
};
static const unsigned char P10[] = {
    DN(G_3,3,0x280),
    DN(Gs3,9,0x000),
    DN(___,0,0x000),
    DN(___,0,0x000),
    DN(___,0,0xE00),
    DN(___,0,0x000),
    DN(G_3,3,0x280),
    DN(Gs3,9,0x000),
    DN(C_5,3,0x2FF),
    DN(C_4,9,0x000),
    DN(As3,9,0x000),
    DN(___,0,0x000),
    DN(G_3,3,0x280),
    DN(Gs3,9,0x000),
    DN(Ds3,9,0x000),
    DN(___,0,0x000),
    DN(___,0,0x000),
    DN(___,0,0x000),
    DN(G_3,3,0x280),
    DN(Ds4,9,0x000),
    DN(Ds3,9,0x000),
    DN(___,0,0x000),
    DN(F_3,9,0x000),
    DN(___,0,0x000),
    DN(C_5,3,0x2FF),
    DN(F_3,9,0x000),
    DN(F_4,9,0x000),
    DN(___,0,0x000),
    DN(F_3,9,0x000),
    DN(___,0,0x000),
    DN(___,0,0x000),
    DN(___,0,0x000),
    DN(G_3,3,0x280),
    DN(G_3,9,0x000),
    DN(___,0,0x000),
    DN(___,0,0x000),
    DN(___,0,0xE00),
    DN(___,0,0x000),
    DN(G_3,3,0x280),
    DN(G_3,9,0x000),
    DN(C_5,3,0x2FF),
    DN(As3,9,0x000),
    DN(Gs3,9,0x000),
    DN(___,0,0x000),
    DN(G_3,3,0x280),
    DN(G_3,9,0x000),
    DN(Ds3,9,0x000),
    DN(___,0,0x000),
    DN(___,0,0x000),
    DN(___,0,0x000),
    DN(G_3,3,0x280),
    DN(Ds4,9,0x000),
    DN(Ds3,9,0x000),
    DN(___,0,0x000),
    DN(E_3,9,0x000),
    DN(___,0,0x000),
    DN(C_5,3,0x2FF),
    DN(E_3,9,0x000),
    DN(E_4,9,0x000),
    DN(___,0,0x000),
    DN(E_3,9,0x000),
    DN(___,0,0x000),
    DN(___,0,0x000),
    DN(___,0,0x000),
};
static const unsigned char P11[] = {
    DN(G_3,3,0x280),
    DN(Gs3,9,0x000),
    DN(___,0,0x000),
    DN(___,0,0x000),
    DN(___,0,0xE00),
    DN(___,0,0x000),
    DN(G_3,3,0x280),
    DN(Gs3,9,0x000),
    DN(C_5,3,0x2FF),
    DN(C_4,9,0x000),
    DN(As3,9,0x000),
    DN(___,0,0x000),
    DN(G_3,3,0x280),
    DN(Gs3,9,0x000),
    DN(Ds3,9,0x000),
    DN(___,0,0x000),
    DN(___,0,0x000),
    DN(___,0,0x000),
    DN(G_3,3,0x280),
    DN(Ds4,9,0x000),
    DN(Ds3,9,0x000),
    DN(___,0,0x000),
    DN(F_3,9,0x000),
    DN(___,0,0x000),
    DN(C_5,3,0x2FF),
    DN(F_3,9,0x000),
    DN(F_4,9,0x000),
    DN(___,0,0x000),
    DN(F_3,9,0x000),
    DN(___,0,0x000),
    DN(___,0,0x000),
    DN(___,0,0x000),
    DN(G_3,3,0x280),
    DN(G_3,9,0x000),
    DN(___,0,0x000),
    DN(___,0,0x000),
    DN(___,0,0xE00),
    DN(___,0,0x000),
    DN(G_3,3,0x280),
    DN(G_3,9,0x000),
    DN(As3,9,0x000),
    DN(___,0,0x000),
    DN(Gs3,9,0x000),
    DN(___,0,0x000),
    DN(C_5,3,0x2FF),
    DN(G_3,9,0x000),
    DN(Ds3,9,0x000),
    DN(___,0,0x000),
    DN(___,0,0x000),
    DN(___,0,0x000),
    DN(Ds4,9,0x000),
    DN(___,0,0x000),
    DN(Ds3,9,0x000),
    DN(___,0,0x000),
    DN(E_3,9,0x000),
    DN(___,0,0x000),
    DN(C_5,3,0x2FF),
    DN(E_3,9,0x000),
    DN(E_4,9,0x000),
    DN(___,0,0x000),
    DN(C_5,3,0x2FF),
    DN(E_3,9,0x000),
    DN(C_5,3,0x2FF),
    DN(E_3,9,0x000),
};
static const unsigned char P12[] = {
    DN(Gs6,1,0x00C),
    DN(Gs6,2,0x00C),
    DN(Gs6,3,0x00C),
    DN(___,0,0x00C),
    DN(Gs6,4,0x00C),
    DN(Gs6,5,0x00C),
    DN(C_7,6,0x00C),
    DN(___,0,0x00C),
    DN(___,0,0xE00),
    DN(___,0,0x000),
    DN(Gs6,9,0x00C),
    DN(___,0,0x00C),
    DN(Ds7,10,0x00C),
    DN(Ds7,11,0x00C),
    DN(Ds7,12,0x00C),
    DN(___,0,0x00C),
    DN(Ds7,13,0x00C),
    DN(Ds7,12,0x00C),
    DN(Ds7,11,0x00C),
    DN(___,0,0x00C),
    DN(Ds7,10,0x00C),
    DN(Ds7,9,0x00C),
    DN(Ds7,8,0x00C),
    DN(___,0,0x00C),
    DN(Cs7,7,0x00C),
    DN(Cs7,6,0x00C),
    DN(___,0,0xE00),
    DN(___,0,0x000),
    DN(C_7,4,0x00C),
    DN(C_7,3,0x00C),
    DN(___,0,0xE00),
    DN(___,0,0x000),
    DN(C_7,1,0x00C),
    DN(Cs7,2,0x00C),
    DN(Cs7,3,0x00C),
    DN(___,0,0x00C),
    DN(As6,4,0x00C),
    DN(As6,5,0x00C),
    DN(F_6,6,0x00C),
    DN(___,0,0x00C),
    DN(___,0,0xE00),
    DN(___,0,0x000),
    DN(As6,9,0x00C),
    DN(___,0,0x00C),
    DN(Cs7,10,0x00C),
    DN(Cs7,11,0x00C),
    DN(Cs7,12,0x00C),
    DN(___,0,0x00C),
    DN(Cs7,13,0x00C),
    DN(Cs7,12,0x00C),
    DN(Cs7,11,0x00C),
    DN(___,0,0x00C),
    DN(Cs7,10,0x00C),
    DN(Cs7,9,0x00C),
    DN(Cs7,8,0x00C),
    DN(___,0,0x00C),
    DN(Cs7,7,0x00C),
    DN(Cs7,6,0x00C),
    DN(Cs7,5,0x00C),
    DN(___,0,0x00C),
    DN(C_7,4,0x00C),
    DN(C_7,3,0x00C),
    DN(As6,2,0x00C),
    DN(___,0,0x00C),
};
static const unsigned char P13[] = {
    DN(C_7,1,0x00C),
    DN(C_7,2,0x00C),
    DN(Ds6,3,0x00C),
    DN(___,0,0x00C),
    DN(___,0,0xE00),
    DN(___,0,0x000),
    DN(Ds6,6,0x00C),
    DN(___,0,0x00C),
    DN(___,0,0xE00),
    DN(___,0,0x000),
    DN(Ds6,9,0x00C),
    DN(___,0,0x00C),
    DN(___,0,0xE00),
    DN(___,0,0x000),
    DN(Ds6,12,0x00C),
    DN(___,0,0x00C),
    DN(___,0,0xE00),
    DN(___,0,0x000),
    DN(Ds6,11,0x00C),
    DN(___,0,0x00C),
    DN(___,0,0xE00),
    DN(___,0,0x000),
    DN(Ds6,8,0x00C),
    DN(___,0,0x00C),
    DN(___,0,0xE00),
    DN(___,0,0x000),
    DN(Ds6,5,0x00C),
    DN(___,0,0x00C),
    DN(Gs6,4,0x00C),
    DN(Gs6,3,0x00C),
    DN(F_6,2,0x00C),
    DN(___,0,0x00C),
    DN(F_6,1,0x00C),
    DN(F_6,2,0x00C),
    DN(F_6,3,0x00C),
    DN(___,0,0x00C),
    DN(F_6,4,0x00C),
    DN(F_6,5,0x00C),
    DN(F_6,6,0x00C),
    DN(___,0,0x00C),
    DN(___,0,0xE00),
    DN(___,0,0x000),
    DN(Ds6,9,0x00C),
    DN(___,0,0x00C),
    DN(F_6,10,0x00C),
    DN(F_6,11,0x00C),
    DN(G_6,12,0x00C),
    DN(___,0,0x00C),
    DN(G_6,13,0x00C),
    DN(G_6,12,0x00C),
    DN(G_6,11,0x00C),
    DN(___,0,0x00C),
    DN(G_6,10,0x00C),
    DN(G_6,9,0x00C),
    DN(G_6,8,0x00C),
    DN(___,0,0x00C),
    DN(G_6,7,0x00C),
    DN(G_6,6,0x00C),
    DN(G_6,5,0x00C),
    DN(___,0,0x00C),
    DN(G_6,4,0x00C),
    DN(G_6,3,0x00C),
    DN(G_6,2,0x00C),
    DN(___,0,0x00C),
};
static const unsigned char P14[] = {
    DN(Gs6,1,0x00C),
    DN(Gs6,2,0x00C),
    DN(Gs6,3,0x00C),
    DN(___,0,0x00C),
    DN(Gs6,4,0x00C),
    DN(Gs6,5,0x00C),
    DN(C_7,6,0x00C),
    DN(___,0,0x00C),
    DN(___,0,0xE00),
    DN(___,0,0x000),
    DN(Gs6,9,0x00C),
    DN(___,0,0x00C),
    DN(Ds7,10,0x00C),
    DN(Ds7,11,0x00C),
    DN(Ds7,12,0x00C),
    DN(___,0,0x00C),
    DN(Ds7,13,0x00C),
    DN(Ds7,12,0x00C),
    DN(Ds7,11,0x00C),
    DN(___,0,0x00C),
    DN(Ds7,10,0x00C),
    DN(Ds7,9,0x00C),
    DN(Ds7,8,0x00C),
    DN(___,0,0x00C),
    DN(Cs7,7,0x00C),
    DN(Cs7,6,0x00C),
    DN(___,0,0xE00),
    DN(___,0,0x000),
    DN(C_7,4,0x00C),
    DN(C_7,3,0x00C),
    DN(___,0,0xE00),
    DN(___,0,0x000),
    DN(C_7,1,0x00C),
    DN(Cs7,2,0x00C),
    DN(Cs7,3,0x00C),
    DN(___,0,0x00C),
    DN(As6,4,0x00C),
    DN(As6,5,0x00C),
    DN(F_7,6,0x00C),
    DN(___,0,0x00C),
    DN(___,0,0xE00),
    DN(___,0,0x000),
    DN(Cs7,9,0x00C),
    DN(___,0,0x00C),
    DN(As7,10,0x00C),
    DN(As7,11,0x00C),
    DN(As7,12,0x00C),
    DN(___,0,0x00C),
    DN(As7,13,0x00C),
    DN(As7,12,0x00C),
    DN(As7,11,0x00C),
    DN(___,0,0x00C),
    DN(As7,10,0x00C),
    DN(As7,9,0x00C),
    DN(As7,8,0x00C),
    DN(___,0,0x00C),
    DN(As7,7,0x00C),
    DN(As7,6,0x00C),
    DN(As7,5,0x00C),
    DN(___,0,0x00C),
    DN(Gs7,4,0x00C),
    DN(Gs7,3,0x00C),
    DN(G_7,2,0x00C),
    DN(___,0,0x00C),
};
static const unsigned char P15[] = {
    DN(Gs7,1,0x00C),
    DN(Gs7,2,0x00C),
    DN(F_7,3,0x00C),
    DN(___,0,0x00C),
    DN(Ds7,4,0x00C),
    DN(Ds7,5,0x00C),
    DN(C_7,6,0x00C),
    DN(___,0,0x00C),
    DN(As6,7,0x00C),
    DN(As6,8,0x00C),
    DN(G_6,9,0x00C),
    DN(___,0,0x00C),
    DN(F_6,10,0x00C),
    DN(F_6,11,0x00C),
    DN(Ds6,12,0x00C),
    DN(___,0,0x00C),
    DN(C_6,13,0x00C),
    DN(C_6,12,0x00C),
    DN(Gs5,11,0x00C),
    DN(___,0,0x00C),
    DN(F_5,10,0x00C),
    DN(F_5,9,0x00C),
    DN(Ds5,8,0x00C),
    DN(___,0,0x00C),
    DN(C_5,7,0x00C),
    DN(C_5,6,0x00C),
    DN(C_6,5,0x00C),
    DN(___,0,0x00C),
    DN(F_6,4,0x00C),
    DN(F_6,3,0x00C),
    DN(___,0,0xE00),
    DN(___,0,0x000),
    DN(Cs7,1,0x00C),
    DN(Cs7,2,0x00C),
    DN(Cs7,3,0x00C),
    DN(___,0,0x00C),
    DN(Cs7,4,0x00C),
    DN(Cs7,5,0x00C),
    DN(Cs7,6,0x00C),
    DN(___,0,0x00C),
    DN(Cs7,7,0x00C),
    DN(Cs7,8,0x00C),
    DN(C_7,9,0x00C),
    DN(___,0,0x00C),
    DN(Cs7,10,0x00C),
    DN(Cs7,11,0x00C),
    DN(Ds7,12,0x00C),
    DN(___,0,0x00C),
    DN(Ds7,13,0x00C),
    DN(Ds7,12,0x00C),
    DN(C_7,11,0x00C),
    DN(___,0,0x00C),
    DN(Ds7,10,0x00C),
    DN(Ds7,9,0x00C),
    DN(C_7,8,0x00C),
    DN(___,0,0x00C),
    DN(Gs7,7,0x00C),
    DN(Gs7,6,0x00C),
    DN(Gs7,5,0x00C),
    DN(___,0,0x00C),
    DN(G_7,4,0x00C),
    DN(G_7,3,0x00C),
    DN(___,0,0xE00),
    DN(___,0,0x000),
};
static const unsigned char P16[] = {
    DN(G_3,3,0x280),
    DN(___,0,0xE00),
    DN(___,0,0x000),
    DN(___,0,0x000),
    DN(___,0,0x000),
    DN(___,0,0x000),
    DN(G_3,3,0x280),
    DN(___,0,0xE00),
    DN(C_5,3,0x2FF),
    DN(___,0,0xE00),
    DN(___,0,0x000),
    DN(___,0,0x000),
    DN(G_3,3,0x280),
    DN(___,0,0xE00),
    DN(___,0,0x000),
    DN(___,0,0x000),
    DN(___,0,0x000),
    DN(___,0,0x000),
    DN(G_3,3,0x280),
    DN(___,0,0xE00),
    DN(___,0,0x000),
    DN(___,0,0x000),
    DN(___,0,0x000),
    DN(___,0,0x000),
    DN(C_5,3,0x2FF),
    DN(___,0,0xE00),
    DN(___,0,0x000),
    DN(___,0,0x000),
    DN(___,0,0x000),
    DN(___,0,0x000),
    DN(___,0,0x000),
    DN(___,0,0x000),
    DN(G_3,3,0x280),
    DN(___,0,0xE00),
    DN(___,0,0x000),
    DN(___,0,0x000),
    DN(___,0,0x000),
    DN(___,0,0x000),
    DN(G_3,3,0x280),
    DN(___,0,0xE00),
    DN(C_5,3,0x2FF),
    DN(___,0,0xE00),
    DN(___,0,0x000),
    DN(___,0,0x000),
    DN(G_3,3,0x280),
    DN(___,0,0xE00),
    DN(___,0,0x000),
    DN(___,0,0x000),
    DN(___,0,0x000),
    DN(___,0,0x000),
    DN(G_3,3,0x280),
    DN(___,0,0xE00),
    DN(___,0,0x000),
    DN(___,0,0x000),
    DN(___,0,0x000),
    DN(___,0,0x000),
    DN(C_5,3,0x2FF),
    DN(___,0,0xE00),
    DN(___,0,0x000),
    DN(___,0,0x000),
    DN(___,0,0x000),
    DN(___,0,0x000),
    DN(___,0,0x000),
    DN(___,0,0x000),
};

static const unsigned char* const order1[] = {P0,P0,P0,P0,P0,P0,P0,P0,P0,P0,P0,P0,P0,P0,P0};
static const unsigned char* const order2[] = {P4,P4,P4,P6,P4,P6,P4,P4,P10,P4,P11,P4,P4,P9,P16};
static const unsigned char* const order3[] = {P7,P8,P1,P2,P1,P2,P7,P8,P12,P13,P14,P15,P1,P2,P0};
static const unsigned char* const order4[] = {P3,P3,P3,P5,P3,P5,P3,P3,P3,P3,P5,P3,P3,P5,P3};

static const hUGEDutyInstr_t duty_instruments[] = {
    {8,0,240,0,128},
    {8,64,240,0,128},
    {8,128,240,0,128},
    {8,192,240,0,128},
    {8,0,241,0,128},
    {8,64,241,0,128},
    {8,128,241,0,128},
    {8,192,241,0,128},
    {8,0,192,0,128},
};
static const hUGEWaveInstr_t wave_instruments[] = {
    {0,32,0,0,128},
    {0,32,1,0,128},
    {0,32,2,0,128},
    {0,32,3,0,128},
    {0,32,4,0,128},
    {0,32,5,0,128},
    {0,32,6,0,128},
    {0,32,7,0,128},
    {0,32,8,0,128},
    {0,32,9,0,128},
    {0,32,10,0,128},
    {0,32,11,0,128},
    {0,32,12,0,128},
    {0,32,13,0,128},
    {0,32,14,0,128},
};
static const hUGENoiseInstr_t noise_instruments[] = {
    {241,0,0,0,0},
    {113,0,0,0,0},
    {242,0,0,0,0},
    {114,0,0,0,0},
};

static const unsigned char waves[] = {
    0,0,0,0,0,0,0,0,255,255,255,255,255,255,255,255,
    0,0,0,0,0,0,0,0,15,255,255,255,255,255,255,255,
    0,0,0,0,0,0,0,0,0,255,255,255,255,255,255,255,
    0,0,0,0,0,0,0,0,0,15,255,255,255,255,255,255,
    0,0,0,0,0,0,0,0,0,0,255,255,255,255,255,255,
    0,0,0,0,0,0,0,0,0,0,15,255,255,255,255,255,
    0,0,0,0,0,0,0,0,0,0,0,255,255,255,255,255,
    0,0,0,0,0,0,0,0,0,0,0,15,255,255,255,255,
    0,0,0,0,0,0,0,0,0,0,0,0,255,255,255,255,
    0,0,0,0,0,0,0,0,0,0,0,0,15,255,255,255,
    0,0,0,0,0,0,0,0,0,0,0,0,0,255,255,255,
    0,0,0,0,0,0,0,0,0,0,0,0,0,15,255,255,
    0,0,0,0,0,0,0,0,0,0,0,0,0,0,255,255,
    0,17,34,51,68,85,102,119,136,153,170,187,204,221,238,255,
    1,35,69,103,137,171,205,239,254,220,186,152,118,84,50,16,
};

const hUGESong_t MUS_FIRST_HALF = {4, &order_cnt, order1, order2, order3,order4, duty_instruments, wave_instruments, noise_instruments, NULL, waves};
