#include "hUGEDriver.h"
#include <stddef.h>

static const unsigned char order_cnt = 42;

static const unsigned char P0[] = {
    DN(___,0,0x000),
    DN(___,0,0x000),
    DN(___,0,0x000),
    DN(___,0,0x000),
    DN(___,0,0x000),
    DN(___,0,0x000),
    DN(___,0,0x000),
    DN(___,0,0x000),
    DN(___,0,0x000),
    DN(___,0,0x000),
    DN(___,0,0x000),
    DN(___,0,0x000),
    DN(___,0,0x000),
    DN(___,0,0x000),
    DN(___,0,0x000),
    DN(___,0,0x000),
    DN(___,0,0x000),
    DN(___,0,0x000),
    DN(___,0,0x000),
    DN(___,0,0x000),
    DN(___,0,0x000),
    DN(___,0,0x000),
    DN(___,0,0x000),
    DN(___,0,0x000),
    DN(___,0,0x000),
    DN(___,0,0x000),
    DN(___,0,0x000),
    DN(___,0,0x000),
    DN(___,0,0x000),
    DN(___,0,0x000),
    DN(___,0,0x000),
    DN(___,0,0x000),
    DN(___,0,0x000),
    DN(___,0,0x000),
    DN(___,0,0x000),
    DN(___,0,0x000),
    DN(___,0,0x000),
    DN(___,0,0x000),
    DN(___,0,0x000),
    DN(___,0,0x000),
    DN(___,0,0x000),
    DN(___,0,0x000),
    DN(___,0,0x000),
    DN(___,0,0x000),
    DN(___,0,0x000),
    DN(___,0,0x000),
    DN(___,0,0x000),
    DN(___,0,0x000),
    DN(___,0,0x000),
    DN(___,0,0x000),
    DN(___,0,0x000),
    DN(___,0,0x000),
    DN(___,0,0x000),
    DN(___,0,0x000),
    DN(___,0,0x000),
    DN(___,0,0x000),
    DN(___,0,0x000),
    DN(___,0,0x000),
    DN(___,0,0x000),
    DN(___,0,0x000),
    DN(___,0,0x000),
    DN(___,0,0x000),
    DN(___,0,0x000),
    DN(___,0,0x000),
};
static const unsigned char P1[] = {
    DN(Fs5,14,0x049),
    DN(___,0,0x049),
    DN(___,0,0x049),
    DN(___,0,0x049),
    DN(___,0,0x049),
    DN(___,0,0x049),
    DN(___,0,0x049),
    DN(___,0,0x049),
    DN(___,0,0xE00),
    DN(___,0,0x000),
    DN(___,0,0x000),
    DN(___,0,0x000),
    DN(Ds6,14,0x037),
    DN(___,0,0x037),
    DN(___,0,0x037),
    DN(___,0,0x037),
    DN(___,0,0x037),
    DN(___,0,0x037),
    DN(___,0,0x037),
    DN(___,0,0x037),
    DN(___,0,0x037),
    DN(___,0,0x037),
    DN(___,0,0xE00),
    DN(___,0,0x000),
    DN(Fs5,14,0x049),
    DN(___,0,0x049),
    DN(___,0,0xE00),
    DN(___,0,0x000),
    DN(F_5,14,0x039),
    DN(___,0,0x039),
    DN(___,0,0x039),
    DN(___,0,0x039),
    DN(___,0,0x039),
    DN(___,0,0x039),
    DN(___,0,0x039),
    DN(___,0,0x039),
    DN(___,0,0x039),
    DN(___,0,0x039),
    DN(___,0,0xE00),
    DN(___,0,0x000),
    DN(D_6,14,0x039),
    DN(___,0,0x039),
    DN(___,0,0xE00),
    DN(___,0,0x000),
    DN(D_6,14,0x038),
    DN(___,0,0x038),
    DN(___,0,0x038),
    DN(___,0,0x038),
    DN(___,0,0x038),
    DN(___,0,0x038),
    DN(___,0,0x038),
    DN(___,0,0x038),
    DN(___,0,0x038),
    DN(___,0,0x038),
    DN(___,0,0xE00),
    DN(___,0,0x000),
    DN(Fs5,14,0x027),
    DN(___,0,0x027),
    DN(___,0,0xE00),
    DN(___,0,0x000),
    DN(Fs5,14,0x036),
    DN(___,0,0x036),
    DN(___,0,0x036),
    DN(___,0,0x036),
};
static const unsigned char P2[] = {
    DN(___,0,0x036),
    DN(___,0,0x036),
    DN(___,0,0x036),
    DN(___,0,0x036),
    DN(___,0,0x036),
    DN(___,0,0x036),
    DN(___,0,0x036),
    DN(___,0,0x036),
    DN(___,0,0xE00),
    DN(___,0,0x000),
    DN(___,0,0x000),
    DN(___,0,0x000),
    DN(C_6,14,0x481),
    DN(___,0,0x481),
    DN(Gs5,14,0x481),
    DN(___,0,0x481),
    DN(C_6,14,0x481),
    DN(___,0,0x481),
    DN(___,0,0x481),
    DN(___,0,0x481),
    DN(Gs5,14,0x481),
    DN(___,0,0x481),
    DN(C_6,14,0x481),
    DN(___,0,0x481),
    DN(___,0,0x481),
    DN(___,0,0x481),
    DN(D_6,14,0x481),
    DN(___,0,0x481),
    DN(Ds6,14,0x481),
    DN(___,0,0x481),
    DN(F_6,14,0x481),
    DN(___,0,0x481),
    DN(As5,14,0x038),
    DN(___,0,0x038),
    DN(___,0,0x038),
    DN(___,0,0x038),
    DN(C_6,14,0x038),
    DN(___,0,0x038),
    DN(Cs6,14,0x049),
    DN(___,0,0x049),
    DN(___,0,0xE00),
    DN(___,0,0x000),
    DN(As5,14,0x038),
    DN(___,0,0x038),
    DN(___,0,0xE00),
    DN(___,0,0x000),
    DN(D_6,14,0x036),
    DN(___,0,0x036),
    DN(___,0,0x036),
    DN(___,0,0x036),
    DN(___,0,0xE00),
    DN(___,0,0x000),
    DN(B_5,14,0x037),
    DN(___,0,0x037),
    DN(___,0,0xE00),
    DN(___,0,0x000),
    DN(As5,14,0x047),
    DN(___,0,0x047),
    DN(___,0,0xE00),
    DN(___,0,0x000),
    DN(F_5,14,0x049),
    DN(___,0,0x049),
    DN(___,0,0x049),
    DN(___,0,0x049),
};
static const unsigned char P3[] = {
    DN(___,0,0x036),
    DN(___,0,0x036),
    DN(___,0,0x036),
    DN(___,0,0x036),
    DN(___,0,0x036),
    DN(___,0,0x036),
    DN(___,0,0x036),
    DN(___,0,0x036),
    DN(___,0,0xE00),
    DN(___,0,0x000),
    DN(___,0,0x000),
    DN(___,0,0x000),
    DN(C_6,14,0x481),
    DN(___,0,0x481),
    DN(Gs5,14,0x481),
    DN(___,0,0x481),
    DN(C_6,14,0x481),
    DN(___,0,0x481),
    DN(F_5,14,0x481),
    DN(___,0,0x481),
    DN(Fs5,14,0x481),
    DN(___,0,0x481),
    DN(A_5,14,0x481),
    DN(___,0,0x481),
    DN(As5,14,0x481),
    DN(___,0,0x481),
    DN(C_6,14,0x481),
    DN(___,0,0x481),
    DN(D_6,14,0x481),
    DN(___,0,0x481),
    DN(Ds6,14,0x481),
    DN(___,0,0x481),
    DN(As5,14,0x038),
    DN(___,0,0x038),
    DN(___,0,0x038),
    DN(___,0,0x038),
    DN(C_6,14,0x038),
    DN(___,0,0x038),
    DN(Cs6,14,0x049),
    DN(___,0,0x049),
    DN(___,0,0xE00),
    DN(___,0,0x000),
    DN(As5,14,0x038),
    DN(___,0,0x038),
    DN(___,0,0xE00),
    DN(___,0,0x000),
    DN(F_6,14,0x038),
    DN(___,0,0x038),
    DN(___,0,0x038),
    DN(___,0,0x038),
    DN(___,0,0x038),
    DN(___,0,0x038),
    DN(___,0,0x038),
    DN(___,0,0x038),
    DN(___,0,0x038),
    DN(___,0,0x038),
    DN(___,0,0x038),
    DN(___,0,0x038),
    DN(___,0,0x038),
    DN(___,0,0x038),
    DN(___,0,0x038),
    DN(___,0,0x038),
    DN(___,0,0x038),
    DN(___,0,0x038),
};
static const unsigned char P4[] = {
    DN(C_7,1,0x481),
    DN(C_7,2,0x481),
    DN(C_7,3,0x481),
    DN(C_7,4,0x481),
    DN(C_7,5,0x481),
    DN(C_7,6,0x481),
    DN(C_7,7,0x481),
    DN(C_7,8,0x481),
    DN(C_7,9,0x481),
    DN(C_7,10,0x481),
    DN(C_7,11,0x481),
    DN(C_7,12,0x481),
    DN(___,0,0xE00),
    DN(___,0,0x000),
    DN(Gs6,11,0x481),
    DN(Gs6,10,0x481),
    DN(C_7,9,0x481),
    DN(C_7,8,0x481),
    DN(C_7,7,0x481),
    DN(C_7,6,0x481),
    DN(Cs7,5,0x481),
    DN(Cs7,4,0x481),
    DN(Ds7,3,0x481),
    DN(Ds7,2,0x481),
    DN(___,0,0xE00),
    DN(___,0,0x000),
    DN(C_7,3,0x481),
    DN(C_7,4,0x481),
    DN(___,0,0xE00),
    DN(___,0,0x000),
    DN(C_7,7,0x481),
    DN(Cs7,8,0x481),
    DN(Cs7,9,0x481),
    DN(Cs7,10,0x481),
    DN(C_7,11,0x481),
    DN(C_7,12,0x481),
    DN(As6,13,0x481),
    DN(As6,12,0x481),
    DN(As6,11,0x481),
    DN(As6,10,0x481),
    DN(As6,9,0x481),
    DN(As6,8,0x481),
    DN(As6,7,0x481),
    DN(As6,6,0x481),
    DN(As6,5,0x481),
    DN(As6,4,0x481),
    DN(As6,3,0x481),
    DN(As6,2,0x481),
    DN(As6,1,0x481),
    DN(Gs6,2,0x481),
    DN(A_6,3,0x481),
    DN(A_6,4,0x481),
    DN(Gs6,5,0x481),
    DN(Gs6,6,0x481),
    DN(G_6,7,0x481),
    DN(G_6,8,0x481),
    DN(Fs6,9,0x481),
    DN(Fs6,10,0x481),
    DN(C_6,11,0x481),
    DN(C_6,12,0x481),
    DN(A_5,13,0x481),
    DN(A_5,12,0x481),
    DN(Fs5,11,0x481),
    DN(Fs5,10,0x481),
};
static const unsigned char P5[] = {
    DN(As5,9,0x481),
    DN(As5,8,0x481),
    DN(F_5,7,0x481),
    DN(F_5,6,0x481),
    DN(As5,5,0x481),
    DN(As5,4,0x481),
    DN(F_6,3,0x481),
    DN(F_6,2,0x481),
    DN(As6,1,0x481),
    DN(As6,2,0x481),
    DN(F_6,3,0x481),
    DN(F_6,4,0x481),
    DN(As6,5,0x481),
    DN(As6,6,0x481),
    DN(C_7,7,0x481),
    DN(C_7,8,0x481),
    DN(D_7,9,0x481),
    DN(D_7,10,0x481),
    DN(F_6,11,0x481),
    DN(F_6,12,0x481),
    DN(Gs6,13,0x481),
    DN(Gs6,12,0x481),
    DN(As6,11,0x481),
    DN(As6,10,0x481),
    DN(D_7,9,0x481),
    DN(D_7,8,0x481),
    DN(F_7,7,0x481),
    DN(F_7,6,0x481),
    DN(___,0,0xE00),
    DN(___,0,0x000),
    DN(F_7,3,0x481),
    DN(Fs7,2,0x481),
    DN(Fs7,1,0x481),
    DN(Fs7,2,0x481),
    DN(F_7,3,0x481),
    DN(F_7,4,0x481),
    DN(Ds7,5,0x481),
    DN(Ds7,6,0x481),
    DN(Ds7,7,0x481),
    DN(Ds7,8,0x481),
    DN(As7,9,0x481),
    DN(As7,10,0x481),
    DN(As7,11,0x481),
    DN(As7,12,0x481),
    DN(Gs7,13,0x481),
    DN(Gs7,12,0x481),
    DN(Fs7,11,0x481),
    DN(Fs7,10,0x481),
    DN(Gs7,9,0x481),
    DN(Gs7,8,0x481),
    DN(As7,7,0x481),
    DN(As7,6,0x481),
    DN(F_7,5,0x481),
    DN(Fs7,4,0x481),
    DN(F_7,3,0x481),
    DN(F_7,2,0x481),
    DN(D_7,1,0x481),
    DN(D_7,2,0x481),
    DN(As6,3,0x481),
    DN(As6,4,0x481),
    DN(F_6,5,0x481),
    DN(F_6,6,0x481),
    DN(D_6,7,0x481),
    DN(D_6,8,0x481),
};
static const unsigned char P6[] = {
    DN(C_7,9,0x481),
    DN(C_7,10,0x481),
    DN(Gs6,11,0x481),
    DN(Gs6,12,0x481),
    DN(F_6,13,0x481),
    DN(F_6,12,0x481),
    DN(C_7,11,0x481),
    DN(C_7,10,0x481),
    DN(Gs6,9,0x481),
    DN(Gs6,8,0x481),
    DN(F_6,7,0x481),
    DN(F_6,6,0x481),
    DN(C_7,5,0x481),
    DN(C_7,4,0x481),
    DN(Gs6,3,0x481),
    DN(Gs6,2,0x481),
    DN(F_6,1,0x481),
    DN(F_6,2,0x481),
    DN(C_7,3,0x481),
    DN(C_7,4,0x481),
    DN(Gs6,5,0x481),
    DN(Gs6,6,0x481),
    DN(F_6,7,0x481),
    DN(F_6,8,0x481),
    DN(C_7,9,0x481),
    DN(C_7,10,0x481),
    DN(Gs6,11,0x481),
    DN(Gs6,12,0x481),
    DN(F_6,13,0x481),
    DN(F_6,12,0x481),
    DN(Gs6,11,0x481),
    DN(Gs6,10,0x481),
    DN(Cs7,9,0x481),
    DN(Cs7,8,0x481),
    DN(Gs6,7,0x481),
    DN(Gs6,6,0x481),
    DN(F_6,5,0x481),
    DN(F_6,4,0x481),
    DN(Cs7,3,0x481),
    DN(Cs7,2,0x481),
    DN(Gs6,1,0x481),
    DN(Gs6,2,0x481),
    DN(F_6,3,0x481),
    DN(F_6,4,0x481),
    DN(Cs7,5,0x481),
    DN(Cs7,6,0x481),
    DN(Gs6,7,0x481),
    DN(Gs6,8,0x481),
    DN(F_6,9,0x481),
    DN(F_6,10,0x481),
    DN(Cs7,11,0x481),
    DN(Cs7,12,0x481),
    DN(Gs6,13,0x481),
    DN(Gs6,12,0x481),
    DN(F_6,11,0x481),
    DN(F_6,10,0x481),
    DN(Cs7,9,0x481),
    DN(Cs7,8,0x481),
    DN(Gs6,7,0x481),
    DN(Gs6,6,0x481),
    DN(F_6,5,0x481),
    DN(F_6,4,0x481),
    DN(Gs6,3,0x481),
    DN(Gs6,2,0x481),
};
static const unsigned char P7[] = {
    DN(D_7,1,0x481),
    DN(D_7,2,0x481),
    DN(As6,3,0x481),
    DN(As6,4,0x481),
    DN(F_6,5,0x481),
    DN(F_6,6,0x481),
    DN(D_7,7,0x481),
    DN(D_7,8,0x481),
    DN(As6,9,0x481),
    DN(As6,10,0x481),
    DN(F_6,11,0x481),
    DN(F_6,12,0x481),
    DN(D_7,13,0x481),
    DN(D_7,12,0x481),
    DN(As6,11,0x481),
    DN(As6,10,0x481),
    DN(F_6,9,0x481),
    DN(F_6,8,0x481),
    DN(D_7,7,0x481),
    DN(D_7,6,0x481),
    DN(As6,5,0x481),
    DN(As6,4,0x481),
    DN(F_6,3,0x481),
    DN(F_6,2,0x481),
    DN(D_7,1,0x481),
    DN(D_7,2,0x481),
    DN(As6,3,0x481),
    DN(As6,4,0x481),
    DN(F_6,5,0x481),
    DN(F_6,6,0x481),
    DN(As6,7,0x481),
    DN(As6,8,0x481),
    DN(F_7,9,0x481),
    DN(F_7,10,0x481),
    DN(D_7,11,0x481),
    DN(D_7,12,0x481),
    DN(As6,13,0x481),
    DN(As6,12,0x481),
    DN(F_7,11,0x481),
    DN(F_7,10,0x481),
    DN(D_7,9,0x481),
    DN(D_7,8,0x481),
    DN(As6,7,0x481),
    DN(As6,6,0x481),
    DN(F_7,5,0x481),
    DN(F_7,4,0x481),
    DN(D_7,3,0x481),
    DN(D_7,2,0x481),
    DN(As6,1,0x481),
    DN(As6,2,0x481),
    DN(F_7,3,0x481),
    DN(F_7,4,0x481),
    DN(D_7,5,0x481),
    DN(D_7,6,0x481),
    DN(As6,7,0x481),
    DN(As6,8,0x481),
    DN(F_7,9,0x481),
    DN(F_7,10,0x481),
    DN(D_7,11,0x481),
    DN(D_7,12,0x481),
    DN(As6,13,0x481),
    DN(As6,12,0x481),
    DN(F_7,11,0x481),
    DN(F_7,10,0x481),
};
static const unsigned char P8[] = {
    DN(As7,9,0x481),
    DN(As7,8,0x481),
    DN(As7,7,0x481),
    DN(As7,6,0x481),
    DN(As7,5,0x481),
    DN(As7,4,0x481),
    DN(As7,3,0x481),
    DN(As7,2,0x481),
    DN(As7,1,0x481),
    DN(As7,2,0x481),
    DN(As7,3,0x481),
    DN(As7,4,0x481),
    DN(As7,5,0x481),
    DN(As7,6,0x481),
    DN(As7,7,0x481),
    DN(As7,8,0x481),
    DN(As7,9,0x481),
    DN(As7,10,0x481),
    DN(As7,11,0x481),
    DN(As7,12,0x481),
    DN(As7,13,0x481),
    DN(As7,12,0x481),
    DN(As7,11,0x481),
    DN(As7,10,0x481),
    DN(As7,9,0x481),
    DN(As7,8,0x481),
    DN(As7,7,0x481),
    DN(As7,6,0x481),
    DN(As7,5,0x481),
    DN(As7,4,0x481),
    DN(As7,3,0x481),
    DN(As7,2,0x481),
    DN(E_6,1,0x220),
    DN(___,0,0xE00),
    DN(E_6,1,0x220),
    DN(___,0,0xE00),
    DN(E_6,1,0x220),
    DN(___,0,0xE00),
    DN(C_6,1,0x220),
    DN(___,0,0xE00),
    DN(C_6,1,0x220),
    DN(___,0,0xE00),
    DN(C_6,1,0x220),
    DN(___,0,0xE00),
    DN(Gs5,1,0x220),
    DN(___,0,0xE00),
    DN(Gs5,1,0x220),
    DN(___,0,0xE00),
    DN(Gs5,1,0x220),
    DN(___,0,0xE00),
    DN(E_5,1,0x220),
    DN(___,0,0xE00),
    DN(E_5,1,0x220),
    DN(___,0,0xE00),
    DN(E_5,1,0x220),
    DN(___,0,0xE00),
    DN(C_5,1,0x220),
    DN(___,0,0xE00),
    DN(C_5,1,0x220),
    DN(___,0,0xE00),
    DN(C_5,1,0x220),
    DN(___,0,0xE00),
    DN(C_5,1,0x220),
    DN(___,0,0xE00),
};
static const unsigned char P9[] = {
    DN(G_6,3,0xF04),
    DN(___,0,0xF03),
    DN(___,0,0xF04),
    DN(___,0,0xF03),
    DN(C_7,1,0xF04),
    DN(___,0,0xF03),
    DN(C_8,2,0xF04),
    DN(___,0,0xF03),
    DN(C_8,2,0xF04),
    DN(___,0,0xF03),
    DN(C_8,2,0xF04),
    DN(___,0,0xF03),
    DN(C_7,1,0xF04),
    DN(___,0,0xF03),
    DN(C_8,2,0xF04),
    DN(___,0,0xF03),
    DN(C_8,2,0xF04),
    DN(___,0,0xF03),
    DN(C_8,2,0xF04),
    DN(___,0,0xF03),
    DN(C_7,1,0xF04),
    DN(___,0,0xF03),
    DN(C_8,2,0xF04),
    DN(___,0,0xF03),
    DN(C_8,2,0xF04),
    DN(___,0,0xF03),
    DN(C_8,2,0xF04),
    DN(___,0,0xF03),
    DN(C_7,1,0xF04),
    DN(___,0,0xF03),
    DN(C_8,2,0xF04),
    DN(___,0,0xF03),
    DN(C_8,2,0xF04),
    DN(___,0,0xF03),
    DN(C_8,2,0xF04),
    DN(___,0,0xF03),
    DN(C_7,1,0xF04),
    DN(___,0,0xF03),
    DN(C_8,2,0xF04),
    DN(___,0,0xF03),
    DN(C_8,2,0xF04),
    DN(___,0,0xF03),
    DN(C_8,2,0xF04),
    DN(___,0,0xF03),
    DN(C_7,1,0xF04),
    DN(___,0,0xF03),
    DN(C_8,2,0xF04),
    DN(___,0,0xF03),
    DN(C_8,2,0xF04),
    DN(___,0,0xF03),
    DN(C_8,2,0xF04),
    DN(___,0,0xF03),
    DN(C_7,1,0xF04),
    DN(___,0,0xF03),
    DN(C_8,2,0xF04),
    DN(___,0,0xF03),
    DN(C_8,2,0xF04),
    DN(___,0,0xF03),
    DN(C_8,2,0xF04),
    DN(___,0,0xF03),
    DN(C_7,1,0xF04),
    DN(___,0,0xF03),
    DN(C_8,2,0xF04),
    DN(___,0,0xF03),
};
static const unsigned char P10[] = {
    DN(C_8,2,0xF04),
    DN(___,0,0xF03),
    DN(C_8,2,0xF04),
    DN(___,0,0xF03),
    DN(C_7,1,0xF04),
    DN(___,0,0xF03),
    DN(C_8,2,0xF04),
    DN(___,0,0xF03),
    DN(C_8,2,0xF04),
    DN(___,0,0xF03),
    DN(C_8,2,0xF04),
    DN(___,0,0xF03),
    DN(C_7,1,0xF04),
    DN(___,0,0xF03),
    DN(C_8,2,0xF04),
    DN(___,0,0xF03),
    DN(C_8,2,0xF04),
    DN(___,0,0xF03),
    DN(C_8,2,0xF04),
    DN(___,0,0xF03),
    DN(C_7,1,0xF04),
    DN(___,0,0xF03),
    DN(C_8,2,0xF04),
    DN(___,0,0xF03),
    DN(C_8,2,0xF04),
    DN(___,0,0xF03),
    DN(C_8,2,0xF04),
    DN(___,0,0xF03),
    DN(C_7,1,0xF04),
    DN(___,0,0xF03),
    DN(C_8,2,0xF04),
    DN(___,0,0xF03),
    DN(C_8,2,0xF04),
    DN(___,0,0xF03),
    DN(C_8,2,0xF04),
    DN(___,0,0xF03),
    DN(C_7,1,0xF04),
    DN(___,0,0xF03),
    DN(C_8,2,0xF04),
    DN(___,0,0xF03),
    DN(C_8,2,0xF04),
    DN(___,0,0xF03),
    DN(C_8,2,0xF04),
    DN(___,0,0xF03),
    DN(C_7,1,0xF04),
    DN(___,0,0xF03),
    DN(C_8,2,0xF04),
    DN(___,0,0xF03),
    DN(C_7,1,0xF04),
    DN(___,0,0xF03),
    DN(C_8,2,0xF04),
    DN(___,0,0xF03),
    DN(C_8,2,0xF04),
    DN(___,0,0xF03),
    DN(C_7,1,0xF04),
    DN(___,0,0xF03),
    DN(C_8,2,0xF04),
    DN(___,0,0xF03),
    DN(C_8,2,0xF04),
    DN(___,0,0xF03),
    DN(C_7,1,0xF04),
    DN(___,0,0xF03),
    DN(C_8,2,0xF04),
    DN(___,0,0xF03),
};
static const unsigned char P11[] = {
    DN(G_6,3,0xF04),
    DN(___,0,0xF03),
    DN(___,0,0xF04),
    DN(___,0,0xF03),
    DN(C_7,1,0xF04),
    DN(___,0,0xF03),
    DN(C_8,2,0xF04),
    DN(___,0,0xF03),
    DN(C_8,2,0xF04),
    DN(___,0,0xF03),
    DN(C_8,2,0xF04),
    DN(___,0,0xF03),
    DN(C_7,1,0xF04),
    DN(___,0,0xF03),
    DN(C_8,2,0xF04),
    DN(___,0,0xF03),
    DN(C_8,2,0xF04),
    DN(___,0,0xF03),
    DN(C_8,2,0xF04),
    DN(___,0,0xF03),
    DN(C_7,1,0xF04),
    DN(___,0,0xF03),
    DN(C_8,2,0xF04),
    DN(___,0,0xF03),
    DN(C_8,2,0xF04),
    DN(___,0,0xF03),
    DN(C_8,2,0xF04),
    DN(___,0,0xF03),
    DN(C_7,1,0xF04),
    DN(___,0,0xF03),
    DN(C_8,2,0xF04),
    DN(___,0,0xF03),
    DN(C_7,1,0xF04),
    DN(___,0,0xF03),
    DN(___,0,0xF04),
    DN(___,0,0xF03),
    DN(___,0,0xF04),
    DN(___,0,0xF03),
    DN(___,0,0xF04),
    DN(___,0,0xF03),
    DN(___,0,0xF04),
    DN(___,0,0xF03),
    DN(___,0,0xF04),
    DN(___,0,0xF03),
    DN(C_7,1,0xF04),
    DN(___,0,0xF03),
    DN(C_7,1,0xF04),
    DN(___,0,0xF03),
    DN(___,0,0xF04),
    DN(___,0,0xF03),
    DN(___,0,0xF04),
    DN(___,0,0xF03),
    DN(___,0,0xF04),
    DN(___,0,0xF03),
    DN(___,0,0xF04),
    DN(___,0,0xF03),
    DN(C_7,1,0xF04),
    DN(___,0,0xF03),
    DN(C_7,1,0xF04),
    DN(___,0,0xF03),
    DN(C_7,1,0xF04),
    DN(___,0,0xF03),
    DN(C_7,1,0xF04),
    DN(___,0,0xF03),
};
static const unsigned char P12[] = {
    DN(G_3,3,0x280),
    DN(Ds3,9,0x000),
    DN(___,0,0x000),
    DN(___,0,0x000),
    DN(C_5,3,0x2FF),
    DN(As3,9,0x000),
    DN(Ds4,9,0x000),
    DN(___,0,0x000),
    DN(G_3,3,0x280),
    DN(Ds4,9,0x000),
    DN(C_4,9,0x000),
    DN(___,0,0x000),
    DN(C_5,3,0x2FF),
    DN(As3,9,0x000),
    DN(Fs3,9,0x000),
    DN(___,0,0x000),
    DN(G_3,3,0x280),
    DN(Ds3,9,0x000),
    DN(___,0,0x000),
    DN(___,0,0x000),
    DN(C_5,3,0x2FF),
    DN(As3,9,0x000),
    DN(Ds4,9,0x000),
    DN(___,0,0x000),
    DN(G_3,3,0x280),
    DN(Ds4,9,0x000),
    DN(C_4,9,0x000),
    DN(___,0,0x000),
    DN(C_5,3,0x2FF),
    DN(As3,9,0x000),
    DN(Fs3,9,0x000),
    DN(___,0,0x000),
    DN(G_3,3,0x280),
    DN(D_3,9,0x000),
    DN(___,0,0x000),
    DN(___,0,0x000),
    DN(C_5,3,0x2FF),
    DN(Gs3,9,0x000),
    DN(D_4,9,0x000),
    DN(___,0,0x000),
    DN(G_3,3,0x280),
    DN(D_4,9,0x000),
    DN(As3,9,0x000),
    DN(___,0,0x000),
    DN(C_5,3,0x2FF),
    DN(Gs3,9,0x000),
    DN(F_3,9,0x000),
    DN(___,0,0x000),
    DN(G_3,3,0x280),
    DN(D_3,9,0x000),
    DN(___,0,0x000),
    DN(___,0,0x000),
    DN(C_5,3,0x2FF),
    DN(Gs3,9,0x000),
    DN(D_4,9,0x000),
    DN(___,0,0x000),
    DN(G_3,3,0x280),
    DN(D_4,9,0x000),
    DN(As3,9,0x000),
    DN(___,0,0x000),
    DN(C_5,3,0x2FF),
    DN(Gs3,9,0x000),
    DN(F_3,9,0x000),
    DN(___,0,0x000),
};
static const unsigned char P13[] = {
    DN(G_3,3,0x280),
    DN(C_3,9,0x000),
    DN(___,0,0x000),
    DN(___,0,0x000),
    DN(C_5,3,0x2FF),
    DN(Fs3,9,0x000),
    DN(C_4,9,0x000),
    DN(___,0,0x000),
    DN(G_3,3,0x280),
    DN(C_4,9,0x000),
    DN(A_3,9,0x000),
    DN(___,0,0x000),
    DN(C_5,3,0x2FF),
    DN(Fs3,9,0x000),
    DN(Ds3,9,0x000),
    DN(___,0,0x000),
    DN(G_3,3,0x280),
    DN(C_3,9,0x000),
    DN(___,0,0x000),
    DN(___,0,0x000),
    DN(C_5,3,0x2FF),
    DN(Fs3,9,0x000),
    DN(C_4,9,0x000),
    DN(___,0,0x000),
    DN(G_3,3,0x280),
    DN(C_4,9,0x000),
    DN(A_3,9,0x000),
    DN(___,0,0x000),
    DN(C_5,3,0x2FF),
    DN(Fs3,9,0x000),
    DN(Ds3,9,0x000),
    DN(___,0,0x000),
    DN(G_3,3,0x280),
    DN(D_3,9,0x000),
    DN(___,0,0x000),
    DN(___,0,0x000),
    DN(C_5,3,0x2FF),
    DN(Gs3,9,0x000),
    DN(D_4,9,0x000),
    DN(___,0,0x000),
    DN(G_3,3,0x280),
    DN(D_4,9,0x000),
    DN(As3,9,0x000),
    DN(___,0,0x000),
    DN(C_5,3,0x2FF),
    DN(Gs3,9,0x000),
    DN(Fs3,9,0x000),
    DN(___,0,0x000),
    DN(C_5,3,0x2FF),
    DN(F_3,9,0x000),
    DN(___,0,0x000),
    DN(___,0,0x000),
    DN(G_3,3,0x280),
    DN(C_4,9,0x000),
    DN(C_5,3,0x2FF),
    DN(F_4,9,0x000),
    DN(___,0,0x000),
    DN(___,0,0x000),
    DN(G_3,3,0x280),
    DN(C_4,9,0x000),
    DN(C_5,3,0x2FF),
    DN(As3,9,0x000),
    DN(Fs3,9,0x000),
    DN(___,0,0x000),
};
static const unsigned char P14[] = {
    DN(G_3,3,0x280),
    DN(C_3,9,0x000),
    DN(___,0,0x000),
    DN(___,0,0x000),
    DN(C_5,3,0x2FF),
    DN(Gs3,1,0x000),
    DN(C_4,9,0x000),
    DN(___,0,0x000),
    DN(G_3,3,0x280),
    DN(C_4,9,0x000),
    DN(Gs3,9,0x000),
    DN(___,0,0x000),
    DN(C_5,3,0x2FF),
    DN(F_3,9,0x000),
    DN(Ds3,9,0x000),
    DN(___,0,0x000),
    DN(G_3,3,0x280),
    DN(C_3,9,0x000),
    DN(___,0,0x000),
    DN(___,0,0x000),
    DN(C_5,3,0x2FF),
    DN(Gs3,9,0x000),
    DN(C_4,9,0x000),
    DN(___,0,0x000),
    DN(G_3,3,0x280),
    DN(C_4,9,0x000),
    DN(Gs3,9,0x000),
    DN(___,0,0x000),
    DN(C_5,3,0x2FF),
    DN(F_3,9,0x000),
    DN(Ds3,9,0x000),
    DN(___,0,0x000),
    DN(G_3,3,0x280),
    DN(Cs3,9,0x000),
    DN(___,0,0x000),
    DN(___,0,0x000),
    DN(C_5,3,0x2FF),
    DN(Gs3,9,0x000),
    DN(Cs4,9,0x000),
    DN(___,0,0x000),
    DN(G_3,3,0x280),
    DN(Cs4,9,0x000),
    DN(Gs3,9,0x000),
    DN(___,0,0x000),
    DN(C_5,3,0x2FF),
    DN(F_3,9,0x000),
    DN(Ds3,9,0x000),
    DN(___,0,0x000),
    DN(G_3,3,0x280),
    DN(Cs3,9,0x000),
    DN(___,0,0x000),
    DN(___,0,0x000),
    DN(C_5,3,0x2FF),
    DN(Gs3,9,0x000),
    DN(Cs4,9,0x000),
    DN(___,0,0x000),
    DN(G_3,3,0x280),
    DN(Cs4,9,0x000),
    DN(Gs3,9,0x000),
    DN(___,0,0x000),
    DN(C_5,3,0x2FF),
    DN(F_3,9,0x000),
    DN(Ds3,9,0x000),
    DN(___,0,0x000),
};
static const unsigned char P15[] = {
    DN(G_3,3,0x280),
    DN(D_3,9,0x000),
    DN(___,0,0x000),
    DN(___,0,0x000),
    DN(C_5,3,0x2FF),
    DN(As3,9,0x000),
    DN(D_4,9,0x000),
    DN(___,0,0x000),
    DN(G_3,3,0x280),
    DN(D_4,9,0x000),
    DN(As3,9,0x000),
    DN(___,0,0x000),
    DN(C_5,3,0x2FF),
    DN(Gs3,9,0x000),
    DN(F_3,9,0x000),
    DN(___,0,0x000),
    DN(G_3,3,0x280),
    DN(D_3,9,0x000),
    DN(___,0,0x000),
    DN(___,0,0x000),
    DN(C_5,3,0x2FF),
    DN(As3,9,0x000),
    DN(D_4,9,0x000),
    DN(___,0,0x000),
    DN(G_3,3,0x280),
    DN(D_4,9,0x000),
    DN(As3,9,0x000),
    DN(___,0,0x000),
    DN(C_5,3,0x2FF),
    DN(Gs3,9,0x000),
    DN(F_3,9,0x000),
    DN(___,0,0x000),
    DN(G_3,3,0x280),
    DN(Ds3,9,0x000),
    DN(___,0,0x000),
    DN(___,0,0x000),
    DN(C_5,3,0x2FF),
    DN(As3,9,0x000),
    DN(Ds4,9,0x000),
    DN(___,0,0x000),
    DN(G_3,3,0x280),
    DN(Ds4,9,0x000),
    DN(C_4,9,0x000),
    DN(___,0,0x000),
    DN(C_5,3,0x2FF),
    DN(As3,9,0x000),
    DN(Fs3,9,0x000),
    DN(___,0,0x000),
    DN(C_5,3,0x2FF),
    DN(Cs3,9,0x000),
    DN(___,0,0x000),
    DN(___,0,0x000),
    DN(G_3,3,0x280),
    DN(Gs3,9,0x000),
    DN(C_5,3,0x2FF),
    DN(Cs4,9,0x000),
    DN(___,0,0x000),
    DN(___,0,0x000),
    DN(G_3,3,0x280),
    DN(Gs3,9,0x000),
    DN(C_5,3,0x2FF),
    DN(F_3,9,0x000),
    DN(Ds3,9,0x000),
    DN(___,0,0x000),
};
static const unsigned char P16[] = {
    DN(G_3,3,0x280),
    DN(D_3,9,0x000),
    DN(___,0,0x000),
    DN(___,0,0x000),
    DN(C_5,3,0x2FF),
    DN(As3,9,0x000),
    DN(D_4,9,0x000),
    DN(___,0,0x000),
    DN(G_3,3,0x280),
    DN(D_4,9,0x000),
    DN(As3,9,0x000),
    DN(___,0,0x000),
    DN(C_5,3,0x2FF),
    DN(Gs3,9,0x000),
    DN(F_3,9,0x000),
    DN(___,0,0x000),
    DN(G_3,3,0x280),
    DN(D_3,9,0x000),
    DN(___,0,0x000),
    DN(___,0,0x000),
    DN(C_5,3,0x2FF),
    DN(As3,9,0x000),
    DN(D_4,9,0x000),
    DN(___,0,0x000),
    DN(G_3,3,0x280),
    DN(D_4,9,0x000),
    DN(As3,9,0x000),
    DN(___,0,0x000),
    DN(C_5,3,0x2FF),
    DN(Gs3,9,0x000),
    DN(F_3,9,0x000),
    DN(___,0,0x000),
    DN(C_5,3,0x2FF),
    DN(___,0,0xE00),
    DN(___,0,0x000),
    DN(___,0,0x000),
    DN(___,0,0x000),
    DN(___,0,0x000),
    DN(___,0,0x000),
    DN(___,0,0x000),
    DN(___,0,0x000),
    DN(___,0,0x000),
    DN(___,0,0x000),
    DN(___,0,0x000),
    DN(C_5,3,0x2FF),
    DN(___,0,0xE00),
    DN(C_5,3,0x2FF),
    DN(___,0,0xE00),
    DN(___,0,0x000),
    DN(___,0,0x000),
    DN(___,0,0x000),
    DN(___,0,0x000),
    DN(___,0,0x000),
    DN(___,0,0x000),
    DN(___,0,0x000),
    DN(___,0,0x000),
    DN(C_5,3,0x2FF),
    DN(___,0,0xE00),
    DN(C_5,3,0x2FF),
    DN(___,0,0xE00),
    DN(C_5,3,0x2FF),
    DN(___,0,0xE00),
    DN(C_5,3,0x2FF),
    DN(___,0,0xE00),
};
static const unsigned char P17[] = {
    DN(___,0,0xE00),
    DN(___,0,0x000),
    DN(___,0,0x000),
    DN(___,0,0x000),
    DN(___,0,0x000),
    DN(___,0,0x000),
    DN(___,0,0x000),
    DN(___,0,0x000),
    DN(___,0,0x000),
    DN(___,0,0x000),
    DN(___,0,0x000),
    DN(___,0,0x000),
    DN(___,0,0x000),
    DN(___,0,0x000),
    DN(___,0,0x000),
    DN(___,0,0x000),
    DN(Fs7,15,0x049),
    DN(___,0,0x049),
    DN(___,0,0x049),
    DN(___,0,0x049),
    DN(___,0,0x049),
    DN(___,0,0x049),
    DN(___,0,0x049),
    DN(___,0,0x049),
    DN(Cs7,15,0x049),
    DN(___,0,0x049),
    DN(___,0,0x049),
    DN(___,0,0x049),
    DN(___,0,0x049),
    DN(___,0,0x049),
    DN(___,0,0x049),
    DN(___,0,0x049),
    DN(___,0,0x05A),
    DN(___,0,0x05A),
    DN(___,0,0x05A),
    DN(___,0,0x05A),
    DN(___,0,0x05A),
    DN(___,0,0x05A),
    DN(___,0,0x05A),
    DN(___,0,0x05A),
    DN(___,0,0x05A),
    DN(___,0,0x05A),
    DN(___,0,0x05A),
    DN(___,0,0x05A),
    DN(___,0,0x05A),
    DN(___,0,0x05A),
    DN(___,0,0x05A),
    DN(___,0,0x05A),
    DN(F_7,15,0x038),
    DN(___,0,0x038),
    DN(___,0,0x038),
    DN(___,0,0x038),
    DN(___,0,0x038),
    DN(___,0,0x038),
    DN(___,0,0x038),
    DN(___,0,0x038),
    DN(Cs7,15,0x047),
    DN(___,0,0x047),
    DN(___,0,0x047),
    DN(___,0,0x047),
    DN(___,0,0x047),
    DN(___,0,0x047),
    DN(___,0,0x047),
    DN(___,0,0x047),
};
static const unsigned char P18[] = {
    DN(D_7,15,0x048),
    DN(___,0,0x048),
    DN(___,0,0x048),
    DN(___,0,0x048),
    DN(___,0,0x048),
    DN(___,0,0x048),
    DN(___,0,0x048),
    DN(___,0,0x048),
    DN(___,0,0x048),
    DN(___,0,0x048),
    DN(___,0,0x048),
    DN(___,0,0x048),
    DN(___,0,0x048),
    DN(___,0,0x048),
    DN(___,0,0x048),
    DN(___,0,0x048),
    DN(___,0,0x048),
    DN(___,0,0x048),
    DN(___,0,0x048),
    DN(___,0,0x048),
    DN(___,0,0x048),
    DN(___,0,0x048),
    DN(___,0,0x048),
    DN(___,0,0x048),
    DN(___,0,0x048),
    DN(___,0,0x048),
    DN(___,0,0x048),
    DN(___,0,0x048),
    DN(___,0,0x048),
    DN(___,0,0x048),
    DN(___,0,0x048),
    DN(___,0,0x048),
    DN(Ds7,15,0x037),
    DN(___,0,0x037),
    DN(___,0,0x037),
    DN(___,0,0x037),
    DN(___,0,0x037),
    DN(___,0,0x037),
    DN(___,0,0x037),
    DN(___,0,0x037),
    DN(___,0,0x037),
    DN(___,0,0x037),
    DN(___,0,0x037),
    DN(___,0,0x037),
    DN(___,0,0x037),
    DN(___,0,0x037),
    DN(___,0,0x037),
    DN(___,0,0x037),
    DN(___,0,0x037),
    DN(___,0,0x037),
    DN(___,0,0x037),
    DN(___,0,0x037),
    DN(___,0,0x037),
    DN(___,0,0x037),
    DN(___,0,0x037),
    DN(___,0,0x037),
    DN(___,0,0x037),
    DN(___,0,0x037),
    DN(___,0,0x037),
    DN(___,0,0x037),
    DN(___,0,0x037),
    DN(___,0,0x037),
    DN(___,0,0x037),
    DN(___,0,0x037),
};
static const unsigned char P19[] = {
    DN(___,0,0xE00),
    DN(___,0,0x000),
    DN(___,0,0x000),
    DN(___,0,0x000),
    DN(___,0,0x000),
    DN(___,0,0x000),
    DN(___,0,0x000),
    DN(___,0,0x000),
    DN(___,0,0x000),
    DN(___,0,0x000),
    DN(___,0,0x000),
    DN(___,0,0x000),
    DN(___,0,0x000),
    DN(___,0,0x000),
    DN(___,0,0x000),
    DN(___,0,0x000),
    DN(Ds7,15,0x038),
    DN(___,0,0x038),
    DN(___,0,0x038),
    DN(___,0,0x038),
    DN(___,0,0x038),
    DN(___,0,0x038),
    DN(___,0,0x038),
    DN(___,0,0x038),
    DN(Cs7,15,0x049),
    DN(___,0,0x049),
    DN(___,0,0x049),
    DN(___,0,0x049),
    DN(___,0,0x049),
    DN(___,0,0x049),
    DN(___,0,0x049),
    DN(___,0,0x049),
    DN(B_6,15,0x049),
    DN(___,0,0x049),
    DN(___,0,0x049),
    DN(___,0,0x049),
    DN(___,0,0x049),
    DN(___,0,0x049),
    DN(___,0,0x049),
    DN(___,0,0x049),
    DN(As6,15,0x038),
    DN(___,0,0x038),
    DN(___,0,0x038),
    DN(___,0,0x038),
    DN(___,0,0x038),
    DN(___,0,0x038),
    DN(___,0,0x038),
    DN(___,0,0x038),
    DN(Gs6,15,0x049),
    DN(___,0,0x049),
    DN(___,0,0x049),
    DN(___,0,0x049),
    DN(___,0,0x049),
    DN(___,0,0x049),
    DN(___,0,0x049),
    DN(___,0,0x049),
    DN(Fs6,15,0x049),
    DN(___,0,0x049),
    DN(___,0,0x049),
    DN(___,0,0x049),
    DN(___,0,0x049),
    DN(___,0,0x049),
    DN(___,0,0x049),
    DN(___,0,0x049),
};
static const unsigned char P20[] = {
    DN(F_6,15,0x059),
    DN(___,0,0x059),
    DN(___,0,0x059),
    DN(___,0,0x059),
    DN(___,0,0x059),
    DN(___,0,0x059),
    DN(___,0,0x059),
    DN(___,0,0x059),
    DN(___,0,0x059),
    DN(___,0,0x059),
    DN(___,0,0x059),
    DN(___,0,0x059),
    DN(___,0,0x059),
    DN(___,0,0x059),
    DN(___,0,0x059),
    DN(___,0,0x059),
    DN(___,0,0x059),
    DN(___,0,0x059),
    DN(___,0,0x059),
    DN(___,0,0x059),
    DN(___,0,0x059),
    DN(___,0,0x059),
    DN(___,0,0x059),
    DN(___,0,0x059),
    DN(___,0,0x059),
    DN(___,0,0x059),
    DN(___,0,0x059),
    DN(___,0,0x059),
    DN(___,0,0x059),
    DN(___,0,0x059),
    DN(___,0,0x059),
    DN(___,0,0x059),
    DN(Fs6,15,0x048),
    DN(___,0,0x048),
    DN(___,0,0x048),
    DN(___,0,0x048),
    DN(___,0,0x048),
    DN(___,0,0x048),
    DN(___,0,0x048),
    DN(___,0,0x048),
    DN(___,0,0x048),
    DN(___,0,0x048),
    DN(___,0,0x048),
    DN(___,0,0x048),
    DN(___,0,0x048),
    DN(___,0,0x048),
    DN(___,0,0x048),
    DN(___,0,0x048),
    DN(___,0,0x048),
    DN(___,0,0x048),
    DN(___,0,0x048),
    DN(___,0,0x048),
    DN(___,0,0x048),
    DN(___,0,0x048),
    DN(___,0,0x048),
    DN(___,0,0x048),
    DN(___,0,0x048),
    DN(___,0,0x048),
    DN(___,0,0x048),
    DN(___,0,0x048),
    DN(___,0,0x048),
    DN(___,0,0x048),
    DN(___,0,0x048),
    DN(___,0,0x048),
};
static const unsigned char P21[] = {
    DN(G_6,3,0xF04),
    DN(___,0,0xF03),
    DN(___,0,0xF04),
    DN(___,0,0xF03),
    DN(___,0,0xF04),
    DN(___,0,0xF03),
    DN(___,0,0xF04),
    DN(___,0,0xF03),
    DN(C_8,2,0xF04),
    DN(___,0,0xF03),
    DN(___,0,0xF04),
    DN(___,0,0xF03),
    DN(___,0,0xF04),
    DN(___,0,0xF03),
    DN(___,0,0xF04),
    DN(___,0,0xF03),
    DN(C_8,2,0xF04),
    DN(___,0,0xF03),
    DN(___,0,0xF04),
    DN(___,0,0xF03),
    DN(___,0,0xF04),
    DN(___,0,0xF03),
    DN(___,0,0xF04),
    DN(___,0,0xF03),
    DN(C_8,2,0xF04),
    DN(___,0,0xF03),
    DN(___,0,0xF04),
    DN(___,0,0xF03),
    DN(___,0,0xF04),
    DN(___,0,0xF03),
    DN(___,0,0xF04),
    DN(___,0,0xF03),
    DN(C_8,2,0xF04),
    DN(___,0,0xF03),
    DN(___,0,0xF04),
    DN(___,0,0xF03),
    DN(___,0,0xF04),
    DN(___,0,0xF03),
    DN(___,0,0xF04),
    DN(___,0,0xF03),
    DN(C_8,2,0xF04),
    DN(___,0,0xF03),
    DN(___,0,0xF04),
    DN(___,0,0xF03),
    DN(___,0,0xF04),
    DN(___,0,0xF03),
    DN(___,0,0xF04),
    DN(___,0,0xF03),
    DN(C_8,2,0xF04),
    DN(___,0,0xF03),
    DN(___,0,0xF04),
    DN(___,0,0xF03),
    DN(___,0,0xF04),
    DN(___,0,0xF03),
    DN(___,0,0xF04),
    DN(___,0,0xF03),
    DN(C_8,2,0xF04),
    DN(___,0,0xF03),
    DN(___,0,0xF04),
    DN(___,0,0xF03),
    DN(___,0,0xF04),
    DN(___,0,0xF03),
    DN(___,0,0xF04),
    DN(___,0,0xF03),
};
static const unsigned char P22[] = {
    DN(C_8,2,0xF04),
    DN(___,0,0xF03),
    DN(___,0,0xF04),
    DN(___,0,0xF03),
    DN(___,0,0xF04),
    DN(___,0,0xF03),
    DN(___,0,0xF04),
    DN(___,0,0xF03),
    DN(C_8,2,0xF04),
    DN(___,0,0xF03),
    DN(___,0,0xF04),
    DN(___,0,0xF03),
    DN(___,0,0xF04),
    DN(___,0,0xF03),
    DN(___,0,0xF04),
    DN(___,0,0xF03),
    DN(C_8,2,0xF04),
    DN(___,0,0xF03),
    DN(___,0,0xF04),
    DN(___,0,0xF03),
    DN(___,0,0xF04),
    DN(___,0,0xF03),
    DN(___,0,0xF04),
    DN(___,0,0xF03),
    DN(C_8,2,0xF04),
    DN(___,0,0xF03),
    DN(___,0,0xF04),
    DN(___,0,0xF03),
    DN(___,0,0xF04),
    DN(___,0,0xF03),
    DN(___,0,0xF04),
    DN(___,0,0xF03),
    DN(C_8,2,0xF04),
    DN(___,0,0xF03),
    DN(___,0,0xF04),
    DN(___,0,0xF03),
    DN(___,0,0xF04),
    DN(___,0,0xF03),
    DN(___,0,0xF04),
    DN(___,0,0xF03),
    DN(C_8,2,0xF04),
    DN(___,0,0xF03),
    DN(___,0,0xF04),
    DN(___,0,0xF03),
    DN(___,0,0xF04),
    DN(___,0,0xF03),
    DN(___,0,0xF04),
    DN(___,0,0xF03),
    DN(C_8,2,0xF04),
    DN(___,0,0xF03),
    DN(___,0,0xF04),
    DN(___,0,0xF03),
    DN(___,0,0xF04),
    DN(___,0,0xF03),
    DN(___,0,0xF04),
    DN(___,0,0xF03),
    DN(C_8,2,0xF04),
    DN(___,0,0xF03),
    DN(___,0,0xF04),
    DN(___,0,0xF03),
    DN(___,0,0xF04),
    DN(___,0,0xF03),
    DN(___,0,0xF04),
    DN(___,0,0xF03),
};
static const unsigned char P23[] = {
    DN(C_8,2,0xF04),
    DN(___,0,0xF03),
    DN(___,0,0xF04),
    DN(___,0,0xF03),
    DN(___,0,0xF04),
    DN(___,0,0xF03),
    DN(___,0,0xF04),
    DN(___,0,0xF03),
    DN(C_8,2,0xF04),
    DN(___,0,0xF03),
    DN(___,0,0xF04),
    DN(___,0,0xF03),
    DN(___,0,0xF04),
    DN(___,0,0xF03),
    DN(___,0,0xF04),
    DN(___,0,0xF03),
    DN(C_8,2,0xF04),
    DN(___,0,0xF03),
    DN(___,0,0xF04),
    DN(___,0,0xF03),
    DN(___,0,0xF04),
    DN(___,0,0xF03),
    DN(___,0,0xF04),
    DN(___,0,0xF03),
    DN(C_8,2,0xF04),
    DN(___,0,0xF03),
    DN(___,0,0xF04),
    DN(___,0,0xF03),
    DN(___,0,0xF04),
    DN(___,0,0xF03),
    DN(___,0,0xF04),
    DN(___,0,0xF03),
    DN(C_8,2,0xF04),
    DN(___,0,0xF03),
    DN(___,0,0xF04),
    DN(___,0,0xF03),
    DN(___,0,0xF04),
    DN(___,0,0xF03),
    DN(___,0,0xF04),
    DN(___,0,0xF03),
    DN(___,0,0xF04),
    DN(___,0,0xF03),
    DN(___,0,0xF04),
    DN(___,0,0xF03),
    DN(___,0,0xF04),
    DN(___,0,0xF03),
    DN(___,0,0xF04),
    DN(___,0,0xF03),
    DN(C_7,1,0xF04),
    DN(___,0,0xF03),
    DN(___,0,0xF04),
    DN(___,0,0xF03),
    DN(___,0,0xF04),
    DN(___,0,0xF03),
    DN(C_7,1,0xF04),
    DN(___,0,0xF03),
    DN(___,0,0xF04),
    DN(___,0,0xF03),
    DN(___,0,0xF04),
    DN(___,0,0xF03),
    DN(C_7,1,0xF04),
    DN(___,0,0xF03),
    DN(___,0,0xF04),
    DN(___,0,0xF03),
};
static const unsigned char P24[] = {
    DN(C_3,9,0x000),
    DN(___,0,0x000),
    DN(___,0,0x000),
    DN(___,0,0x000),
    DN(___,0,0x000),
    DN(___,0,0x000),
    DN(___,0,0x000),
    DN(___,0,0x000),
    DN(___,0,0x000),
    DN(___,0,0x000),
    DN(___,0,0x000),
    DN(___,0,0x000),
    DN(___,0,0x000),
    DN(___,0,0x000),
    DN(___,0,0x000),
    DN(___,0,0x000),
    DN(___,0,0x000),
    DN(___,0,0x000),
    DN(___,0,0x000),
    DN(___,0,0x000),
    DN(___,0,0x000),
    DN(___,0,0x000),
    DN(___,0,0x000),
    DN(___,0,0x000),
    DN(___,0,0x000),
    DN(___,0,0x000),
    DN(___,0,0x000),
    DN(___,0,0x000),
    DN(___,0,0x000),
    DN(___,0,0x000),
    DN(___,0,0x000),
    DN(___,0,0x000),
    DN(Cs3,9,0x000),
    DN(___,0,0x000),
    DN(___,0,0x000),
    DN(___,0,0x000),
    DN(___,0,0x000),
    DN(___,0,0x000),
    DN(___,0,0x000),
    DN(___,0,0x000),
    DN(___,0,0x000),
    DN(___,0,0x000),
    DN(___,0,0x000),
    DN(___,0,0x000),
    DN(___,0,0x000),
    DN(___,0,0x000),
    DN(___,0,0x000),
    DN(___,0,0x000),
    DN(___,0,0x000),
    DN(___,0,0x000),
    DN(___,0,0x000),
    DN(___,0,0x000),
    DN(___,0,0x000),
    DN(___,0,0x000),
    DN(___,0,0x000),
    DN(___,0,0x000),
    DN(___,0,0x000),
    DN(___,0,0x000),
    DN(___,0,0x000),
    DN(___,0,0x000),
    DN(___,0,0x000),
    DN(___,0,0x000),
    DN(___,0,0x000),
    DN(___,0,0x000),
};
static const unsigned char P25[] = {
    DN(D_3,9,0x000),
    DN(___,0,0x000),
    DN(___,0,0x000),
    DN(___,0,0x000),
    DN(___,0,0x000),
    DN(___,0,0x000),
    DN(___,0,0x000),
    DN(___,0,0x000),
    DN(___,0,0x000),
    DN(___,0,0x000),
    DN(___,0,0x000),
    DN(___,0,0x000),
    DN(___,0,0x000),
    DN(___,0,0x000),
    DN(___,0,0x000),
    DN(___,0,0x000),
    DN(___,0,0x000),
    DN(___,0,0x000),
    DN(___,0,0x000),
    DN(___,0,0x000),
    DN(___,0,0x000),
    DN(___,0,0x000),
    DN(___,0,0x000),
    DN(___,0,0x000),
    DN(___,0,0x000),
    DN(___,0,0x000),
    DN(___,0,0x000),
    DN(___,0,0x000),
    DN(___,0,0x000),
    DN(___,0,0x000),
    DN(___,0,0x000),
    DN(___,0,0x000),
    DN(Ds3,9,0x000),
    DN(___,0,0x000),
    DN(___,0,0x000),
    DN(___,0,0x000),
    DN(___,0,0x000),
    DN(___,0,0x000),
    DN(___,0,0x000),
    DN(___,0,0x000),
    DN(___,0,0x000),
    DN(___,0,0x000),
    DN(___,0,0x000),
    DN(___,0,0x000),
    DN(___,0,0x000),
    DN(___,0,0x000),
    DN(___,0,0x000),
    DN(___,0,0x000),
    DN(___,0,0x000),
    DN(___,0,0x000),
    DN(___,0,0x000),
    DN(___,0,0x000),
    DN(___,0,0x000),
    DN(___,0,0x000),
    DN(___,0,0x000),
    DN(___,0,0x000),
    DN(___,0,0x000),
    DN(___,0,0x000),
    DN(___,0,0x000),
    DN(___,0,0x000),
    DN(___,0,0x000),
    DN(___,0,0x000),
    DN(___,0,0x000),
    DN(___,0,0x000),
};
static const unsigned char P26[] = {
    DN(D_3,9,0x000),
    DN(___,0,0x000),
    DN(___,0,0x000),
    DN(___,0,0x000),
    DN(___,0,0x000),
    DN(___,0,0x000),
    DN(___,0,0x000),
    DN(___,0,0x000),
    DN(___,0,0x000),
    DN(___,0,0x000),
    DN(___,0,0x000),
    DN(___,0,0x000),
    DN(___,0,0x000),
    DN(___,0,0x000),
    DN(___,0,0x000),
    DN(___,0,0x000),
    DN(___,0,0x000),
    DN(___,0,0x000),
    DN(___,0,0x000),
    DN(___,0,0x000),
    DN(___,0,0x000),
    DN(___,0,0x000),
    DN(___,0,0x000),
    DN(___,0,0x000),
    DN(___,0,0x000),
    DN(___,0,0x000),
    DN(___,0,0x000),
    DN(___,0,0x000),
    DN(___,0,0x000),
    DN(___,0,0x000),
    DN(___,0,0x000),
    DN(___,0,0x000),
    DN(Ds3,9,0x000),
    DN(___,0,0x000),
    DN(___,0,0x000),
    DN(___,0,0x000),
    DN(___,0,0x000),
    DN(___,0,0x000),
    DN(___,0,0x000),
    DN(___,0,0x000),
    DN(___,0,0x000),
    DN(___,0,0x000),
    DN(___,0,0x000),
    DN(___,0,0x000),
    DN(___,0,0x000),
    DN(___,0,0x000),
    DN(___,0,0x000),
    DN(___,0,0x000),
    DN(C_5,3,0x2FF),
    DN(Ds3,9,0x000),
    DN(___,0,0x000),
    DN(___,0,0x000),
    DN(___,0,0x000),
    DN(___,0,0x000),
    DN(C_5,3,0x2FF),
    DN(Ds3,9,0x000),
    DN(___,0,0x000),
    DN(___,0,0x000),
    DN(___,0,0x000),
    DN(___,0,0x000),
    DN(C_5,3,0x2FF),
    DN(Ds3,9,0x000),
    DN(___,0,0x000),
    DN(___,0,0x000),
};
static const unsigned char P29[] = {
    DN(___,0,0xE00),
    DN(___,0,0x000),
    DN(___,0,0x000),
    DN(___,0,0x000),
    DN(___,0,0x000),
    DN(___,0,0x000),
    DN(___,0,0x000),
    DN(___,0,0x000),
    DN(___,0,0x000),
    DN(___,0,0x000),
    DN(___,0,0x000),
    DN(___,0,0x000),
    DN(___,0,0x000),
    DN(___,0,0x000),
    DN(___,0,0x000),
    DN(___,0,0x000),
    DN(Ds6,1,0x038),
    DN(Ds6,2,0x038),
    DN(Ds6,3,0x038),
    DN(Ds6,4,0x038),
    DN(Ds6,5,0x038),
    DN(Ds6,6,0x038),
    DN(Ds6,7,0x038),
    DN(Ds6,8,0x038),
    DN(Cs6,9,0x049),
    DN(Cs6,10,0x049),
    DN(Cs6,11,0x049),
    DN(Cs6,12,0x049),
    DN(Cs6,13,0x049),
    DN(Cs6,12,0x049),
    DN(Cs6,11,0x049),
    DN(Cs6,10,0x049),
    DN(B_5,9,0x049),
    DN(B_5,8,0x049),
    DN(B_5,7,0x049),
    DN(B_5,6,0x049),
    DN(B_5,5,0x049),
    DN(B_5,4,0x049),
    DN(B_5,3,0x049),
    DN(B_5,2,0x049),
    DN(As5,1,0x038),
    DN(As5,2,0x038),
    DN(As5,3,0x038),
    DN(As5,4,0x038),
    DN(As5,5,0x038),
    DN(As5,6,0x038),
    DN(As5,7,0x038),
    DN(As5,8,0x038),
    DN(Gs5,9,0x049),
    DN(Gs5,10,0x049),
    DN(Gs5,11,0x049),
    DN(Gs5,12,0x049),
    DN(Gs5,13,0x049),
    DN(Gs5,12,0x049),
    DN(Gs5,11,0x049),
    DN(Gs5,10,0x049),
    DN(Fs5,9,0x049),
    DN(Fs5,8,0x049),
    DN(Fs5,7,0x049),
    DN(Fs5,6,0x049),
    DN(Fs5,5,0x049),
    DN(Fs5,4,0x049),
    DN(Fs5,3,0x049),
    DN(Fs5,2,0x049),
};
static const unsigned char P27[] = {
    DN(___,0,0xE00),
    DN(___,0,0x000),
    DN(___,0,0x000),
    DN(___,0,0x000),
    DN(___,0,0x000),
    DN(___,0,0x000),
    DN(___,0,0x000),
    DN(___,0,0x000),
    DN(___,0,0x000),
    DN(___,0,0x000),
    DN(___,0,0x000),
    DN(___,0,0x000),
    DN(___,0,0x000),
    DN(___,0,0x000),
    DN(___,0,0x000),
    DN(___,0,0x000),
    DN(Fs6,9,0x049),
    DN(Fs6,8,0x049),
    DN(Fs6,7,0x049),
    DN(Fs6,6,0x049),
    DN(Fs6,5,0x049),
    DN(Fs6,4,0x049),
    DN(Fs6,3,0x049),
    DN(Fs6,2,0x049),
    DN(Cs6,1,0x049),
    DN(Cs6,2,0x049),
    DN(Cs6,3,0x049),
    DN(Cs6,4,0x049),
    DN(Cs6,5,0x049),
    DN(Cs6,6,0x049),
    DN(Cs6,7,0x049),
    DN(Cs6,8,0x049),
    DN(Cs6,9,0x05A),
    DN(Cs6,10,0x05A),
    DN(Cs6,11,0x05A),
    DN(Cs6,12,0x05A),
    DN(Cs6,13,0x05A),
    DN(Cs6,12,0x05A),
    DN(Cs6,11,0x05A),
    DN(Cs6,10,0x05A),
    DN(Cs6,9,0x05A),
    DN(Cs6,8,0x05A),
    DN(Cs6,7,0x05A),
    DN(Cs6,6,0x05A),
    DN(Cs6,5,0x05A),
    DN(Cs6,4,0x05A),
    DN(Cs6,3,0x05A),
    DN(Cs6,2,0x05A),
    DN(F_6,1,0x038),
    DN(F_6,2,0x038),
    DN(F_6,3,0x038),
    DN(F_6,4,0x038),
    DN(F_6,5,0x038),
    DN(F_6,6,0x038),
    DN(F_6,7,0x038),
    DN(F_6,8,0x038),
    DN(Cs6,9,0x047),
    DN(Cs6,10,0x047),
    DN(Cs6,11,0x047),
    DN(Cs6,12,0x047),
    DN(Cs6,13,0x047),
    DN(Cs6,12,0x047),
    DN(Cs6,11,0x047),
    DN(Cs6,10,0x047),
};
static const unsigned char P28[] = {
    DN(D_6,9,0x048),
    DN(D_6,8,0x048),
    DN(D_6,7,0x048),
    DN(D_6,6,0x048),
    DN(D_6,5,0x048),
    DN(D_6,4,0x048),
    DN(D_6,3,0x048),
    DN(D_6,2,0x048),
    DN(D_6,1,0x048),
    DN(D_6,2,0x048),
    DN(D_6,3,0x048),
    DN(D_6,4,0x048),
    DN(D_6,5,0x048),
    DN(D_6,6,0x048),
    DN(D_6,7,0x048),
    DN(D_6,8,0x048),
    DN(D_6,9,0x048),
    DN(D_6,10,0x048),
    DN(D_6,11,0x048),
    DN(D_6,12,0x048),
    DN(D_6,13,0x048),
    DN(D_6,12,0x048),
    DN(D_6,11,0x048),
    DN(D_6,10,0x048),
    DN(D_6,9,0x048),
    DN(D_6,8,0x048),
    DN(D_6,7,0x048),
    DN(D_6,6,0x048),
    DN(D_6,5,0x048),
    DN(D_6,4,0x048),
    DN(D_6,3,0x048),
    DN(D_6,2,0x048),
    DN(Ds6,1,0x037),
    DN(Ds6,2,0x037),
    DN(Ds6,3,0x037),
    DN(Ds6,4,0x037),
    DN(Ds6,5,0x037),
    DN(Ds6,6,0x037),
    DN(Ds6,7,0x037),
    DN(Ds6,8,0x037),
    DN(Ds6,9,0x037),
    DN(Ds6,10,0x037),
    DN(Ds6,11,0x037),
    DN(Ds6,12,0x037),
    DN(Ds6,13,0x037),
    DN(Ds6,12,0x037),
    DN(Ds6,11,0x037),
    DN(Ds6,10,0x037),
    DN(Ds6,9,0x037),
    DN(Ds6,8,0x037),
    DN(Ds6,7,0x037),
    DN(Ds6,6,0x037),
    DN(Ds6,5,0x037),
    DN(Ds6,4,0x037),
    DN(Ds6,3,0x037),
    DN(Ds6,2,0x037),
    DN(Ds6,1,0x037),
    DN(Ds6,2,0x037),
    DN(Ds6,3,0x037),
    DN(Ds6,4,0x037),
    DN(Ds6,5,0x037),
    DN(Ds6,6,0x037),
    DN(Ds6,7,0x037),
    DN(Ds6,8,0x037),
};
static const unsigned char P30[] = {
    DN(F_5,1,0x059),
    DN(F_5,2,0x059),
    DN(F_5,3,0x059),
    DN(F_5,4,0x059),
    DN(F_5,5,0x059),
    DN(F_5,6,0x059),
    DN(F_5,7,0x059),
    DN(F_5,8,0x059),
    DN(F_5,9,0x059),
    DN(F_5,10,0x059),
    DN(F_5,11,0x059),
    DN(F_5,12,0x059),
    DN(F_5,13,0x059),
    DN(F_5,12,0x059),
    DN(F_5,11,0x059),
    DN(F_5,10,0x059),
    DN(F_5,9,0x059),
    DN(F_5,8,0x059),
    DN(F_5,7,0x059),
    DN(F_5,6,0x059),
    DN(F_5,5,0x059),
    DN(F_5,4,0x059),
    DN(F_5,3,0x059),
    DN(F_5,2,0x059),
    DN(F_5,1,0x059),
    DN(F_5,2,0x059),
    DN(F_5,3,0x059),
    DN(F_5,4,0x059),
    DN(F_5,5,0x059),
    DN(F_5,6,0x059),
    DN(F_5,7,0x059),
    DN(F_5,8,0x059),
    DN(Fs5,9,0x048),
    DN(Fs5,10,0x048),
    DN(Fs5,11,0x048),
    DN(Fs5,12,0x048),
    DN(Fs5,13,0x048),
    DN(Fs5,12,0x048),
    DN(Fs5,11,0x048),
    DN(Fs5,10,0x048),
    DN(Fs5,9,0x048),
    DN(Fs5,8,0x048),
    DN(Fs5,7,0x048),
    DN(Fs5,6,0x048),
    DN(Fs5,5,0x048),
    DN(Fs5,4,0x048),
    DN(Fs5,3,0x048),
    DN(Fs5,2,0x048),
    DN(F_5,1,0x059),
    DN(F_5,2,0x059),
    DN(F_5,3,0x059),
    DN(F_5,4,0x059),
    DN(F_5,5,0x059),
    DN(F_5,6,0x059),
    DN(F_5,7,0x059),
    DN(F_5,8,0x059),
    DN(F_5,9,0x059),
    DN(F_5,10,0x059),
    DN(F_5,11,0x059),
    DN(F_5,12,0x059),
    DN(F_5,13,0x059),
    DN(F_5,12,0x059),
    DN(F_5,11,0x059),
    DN(F_5,10,0x059),
};

static const unsigned char* const order1[] = {P0,P0,P0,P0,P0,P0,P0,P0,P0,P0,P0,P0,P0,P0,P0,P0,P0,P0,P0,P0,P0};
static const unsigned char* const order2[] = {P12,P13,P12,P13,P14,P15,P14,P15,P16,P12,P13,P12,P13,P24,P25,P24,P26,P14,P15,P14,P15};
static const unsigned char* const order3[] = {P1,P2,P1,P2,P4,P5,P6,P7,P8,P1,P2,P1,P3,P17,P18,P19,P20,P27,P28,P29,P30};
static const unsigned char* const order4[] = {P9,P10,P9,P10,P9,P10,P9,P10,P11,P9,P10,P9,P10,P21,P22,P22,P23,P9,P10,P9,P10};

static const hUGEDutyInstr_t duty_instruments[] = {
    {8,0,240,0,128},
    {8,64,240,0,128},
    {8,128,240,0,128},
    {8,192,240,0,128},
    {8,0,241,0,128},
    {8,64,241,0,128},
    {8,128,241,0,128},
    {8,192,241,0,128},
    {8,0,192,0,128},
    {8,128,240,0,128},
    {8,128,240,0,128},
    {8,128,240,0,128},
    {8,128,240,0,128},
    {8,128,240,0,128},
    {8,128,240,0,128},
};
static const hUGEWaveInstr_t wave_instruments[] = {
    {0,32,0,0,128},
    {0,32,1,0,128},
    {0,32,2,0,128},
    {0,32,3,0,128},
    {0,32,4,0,128},
    {0,32,5,0,128},
    {0,32,6,0,128},
    {0,32,7,0,128},
    {0,32,8,0,128},
    {0,32,9,0,128},
    {0,32,10,0,128},
    {0,32,11,0,128},
    {0,32,12,0,128},
    {0,32,13,0,128},
    {0,32,14,0,128},
};
static const hUGENoiseInstr_t noise_instruments[] = {
    {241,0,0,0,0},
    {113,0,0,0,0},
    {242,0,0,0,0},
    {114,0,0,0,0},
    {112,0,128,0,0},
    {240,0,0,0,0},
    {240,0,0,0,0},
    {240,0,0,0,0},
    {240,0,0,0,0},
    {240,0,0,0,0},
    {240,0,0,0,0},
    {240,0,0,0,0},
    {240,0,0,0,0},
    {240,0,0,0,0},
    {240,0,0,0,0},
};

static const unsigned char waves[] = {
    0,0,0,0,0,0,0,0,255,255,255,255,255,255,255,255,
    0,0,0,0,0,0,0,0,15,255,255,255,255,255,255,255,
    0,0,0,0,0,0,0,0,0,255,255,255,255,255,255,255,
    0,0,0,0,0,0,0,0,0,15,255,255,255,255,255,255,
    0,0,0,0,0,0,0,0,0,0,255,255,255,255,255,255,
    0,0,0,0,0,0,0,0,0,0,15,255,255,255,255,255,
    0,0,0,0,0,0,0,0,0,0,0,255,255,255,255,255,
    0,0,0,0,0,0,0,0,0,0,0,15,255,255,255,255,
    0,0,0,0,0,0,0,0,0,0,0,0,255,255,255,255,
    0,0,0,0,0,0,0,0,0,0,0,0,15,255,255,255,
    0,0,0,0,0,0,0,0,0,0,0,0,0,255,255,255,
    0,0,0,0,0,0,0,0,0,0,0,0,0,15,255,255,
    0,0,0,0,0,0,0,0,0,0,0,0,0,0,255,255,
    0,17,34,51,68,85,102,119,136,153,170,187,204,221,238,255,
    1,35,69,103,137,171,205,239,254,220,186,152,118,84,50,16,
    255,255,255,255,255,255,255,255,255,255,255,255,255,255,255,255,
};

const hUGESong_t MUS_SECOND_HALF = {4, &order_cnt, order1, order2, order3,order4, duty_instruments, wave_instruments, noise_instruments, NULL, waves};
